M48
;Layer_Color=9474304
;FILE_FORMAT=4:4
METRIC,LZ
;TYPE=PLATED
T1F00S00C0.3000
T2F00S00C0.9000
T3F00S00C1.4000
T5F00S00C4.1000
T6F00S00C10.0000
;TYPE=NON_PLATED
T7F00S00C1.1520
%
T01
X001125Y000375
X0011Y00085
X001
X0009
X0008
X0007
X000675Y00095
Y00105
X00075Y0011
X00085
X00095
X00105
X001125Y00105
Y00095
Y0016
Y0017
X0011Y0018
X001
X0009
X0008
X0007
X000675Y0017
Y0016
X00075Y00155
X00085
X00095
X00105
X00195Y001525
Y001425
Y001625
Y001725
Y001825
Y001925
X002175Y00195
Y001825
Y00155
X0025
Y002175
X0024
Y002575
Y0027
X002275
Y002575
X002875Y00265
X00295Y0024
X002925Y00225
X0032074Y0022176
X003125Y0021
Y00245
X003225Y003
X002925Y00315
Y00325
Y00335
Y00345
X0026Y0035
X0038
X003775Y002225
Y00185
X003825Y00145
X00328739Y00129342
X003325Y001
Y000875
Y000725
X003475Y000775
X003575Y000825
X00348396Y001075
X003075Y001075
X00275Y001
X002775Y00065
X002675
X0024Y000725
X00211098Y0004373
X002125Y000275
X00225Y000125
X002
X00175
X0015
X00275
X003
X003025Y000375
X00367444Y0004798
X003725Y0006
X00385
X003375Y002
X0016Y003
X001475
X00135
X00125Y003125
Y003225
Y003325
Y003425
Y003525
X0043Y0035
X004375Y00325
X004625
X0048Y0035
X005
X00525
X005525
X0058
X006125
Y002625
X0053Y00265
X005275Y002375
X005Y0025
X0048Y0023
Y0021
Y0019
X0046
X0044
Y0021
X0046
Y0023
X0044
X004225Y002475
X0042Y0017
X00415Y001375
X0046Y001475
X005025Y0017
X005425Y001775
Y00155
X00536263Y00133874
X00531109Y00106425
X0057Y0011
X005625Y000775
X0059Y00065
X006Y0007
X00595168Y00089268
X0062Y0011
Y0013
Y0015
Y0017
X0059Y0016
X005875Y002025
X00575
X005525Y002875
X005375
X0076Y0028
Y003
X0078Y0034
X0076Y0021
Y0019
X0072Y0014
X0067Y0002
X00625Y00025
X006125Y000125
X005875
X005625
Y00035
X0053Y000475
X00515Y0006
X005125Y000125
X005375
X004875
X0042Y000175
Y000275
Y000375
X00405Y00055
X004275Y00065
X0044Y000825
X0078Y0002
X0082
X0086
X0089Y0004
X0091Y0008
X0093Y0012
X0095Y0016
X0097Y002
X01Y0023
X0103Y0024
X0105Y0027
Y0031
X010325Y003275
X0101Y0034
X0097
X0093
X0089
Y003
Y0026
X0087Y0021
X0084
Y0018
X0087
X008Y0016
X0081Y0012
Y001
X0085Y0034
T02
X001025Y002675
T03
X0081245Y0026851
X0083245
X0084745Y0028851
X0084245Y0030851
X0080245
X0079745Y0028851
X0095745
X0096245Y0030851
X0098245
X0100245
X0100745Y0028851
X0098745
X0099245Y0026851
X0097245
T05
X0017495Y0024851
T06
X0017045Y0008751
T07
X00124922Y00024378
X0105323Y00342158
M30
