G04*
G04 #@! TF.GenerationSoftware,Altium Limited,Altium Designer,23.2.1 (34)*
G04*
G04 Layer_Color=65535*
%FSLAX44Y44*%
%MOMM*%
G71*
G04*
G04 #@! TF.SameCoordinates,C9E59ACA-6E94-426F-9901-F0231D443E17*
G04*
G04*
G04 #@! TF.FilePolarity,Positive*
G04*
G01*
G75*
%ADD10C,0.6000*%
%ADD11C,0.2500*%
%ADD12C,0.3000*%
%ADD13C,0.2032*%
%ADD14C,0.1000*%
%ADD15C,0.2540*%
%ADD16C,0.2000*%
%ADD17C,0.1270*%
D10*
X314500Y79000D02*
G03*
X314500Y79000I-3000J0D01*
G01*
X529000Y32500D02*
G03*
X529000Y32500I-3000J0D01*
G01*
X384500Y342500D02*
G03*
X384500Y342500I-3000J0D01*
G01*
D11*
X297500Y57750D02*
G03*
X297500Y57750I-1250J0D01*
G01*
X124250Y267500D02*
G03*
X124250Y267500I-1250J0D01*
G01*
X594250Y142700D02*
G03*
X594250Y142700I-1250J0D01*
G01*
X547500Y17775D02*
G03*
X547500Y17775I-1250J0D01*
G01*
X895250Y230000D02*
G03*
X895250Y230000I-1250J0D01*
G01*
X601268Y89050D02*
G03*
X601268Y89050I-1250J0D01*
G01*
X253250Y70750D02*
G03*
X253250Y70750I-1250J0D01*
G01*
X35500Y142500D02*
G03*
X35500Y142500I-1250J0D01*
G01*
X490250Y130000D02*
G03*
X490250Y130000I-1250J0D01*
G01*
X855000Y131500D02*
G03*
X855000Y131500I-1250J0D01*
G01*
X362500Y354800D02*
G03*
X362500Y354800I-1250J0D01*
G01*
X251750Y168750D02*
G03*
X251750Y168750I-1250J0D01*
G01*
D12*
X598414Y349000D02*
G03*
X598414Y349000I-1414J0D01*
G01*
Y249000D02*
G03*
X598414Y249000I-1414J0D01*
G01*
D13*
X435499Y236500D02*
G03*
X435499Y236500I-2499J0D01*
G01*
X490000Y243000D02*
X493000Y240000D01*
X490000Y177000D02*
X493000Y180000D01*
X427000D02*
X430000Y177000D01*
X427000Y180000D02*
Y240000D01*
X430000Y243000D01*
X490000D01*
X493000Y180000D02*
Y240000D01*
X430000Y177000D02*
X490000D01*
D14*
X188500Y324254D02*
G03*
X188500Y324254I-500J0D01*
G01*
X225000Y282500D02*
G03*
X225000Y282500I-500J0D01*
G01*
D15*
X1013699Y272000D02*
G03*
X1013699Y272000I-4579J0D01*
G01*
X1022450Y288510D02*
G03*
X1022450Y288510I-40000J0D01*
G01*
X862450D02*
G03*
X862450Y288510I-40000J0D01*
G01*
X853699Y272000D02*
G03*
X853699Y272000I-4579J0D01*
G01*
X110000Y317617D02*
X104922D01*
X107461D01*
Y304922D01*
X104922Y302383D01*
X102382D01*
X99843Y304922D01*
X115078Y302383D02*
X120157D01*
X117618D01*
Y317617D01*
X115078Y315078D01*
D16*
X546064Y119770D02*
X551396D01*
X563230Y126546D02*
Y132770D01*
X534230D02*
X542246D01*
X555214D02*
X563230D01*
X534230Y126546D02*
Y132770D01*
X251061Y102939D02*
Y127061D01*
X233939Y102939D02*
Y127061D01*
X363500Y69000D02*
Y131000D01*
X301500Y69000D02*
Y131000D01*
X363500D01*
X301500Y69000D02*
X363500D01*
X135000Y331740D02*
Y334740D01*
Y374740D02*
X215000D01*
X135000Y355740D02*
Y374740D01*
X215000Y355740D02*
Y374740D01*
Y331740D02*
Y334740D01*
X116500Y253500D02*
Y281500D01*
X88500Y253500D02*
X116500D01*
X88500D02*
Y281500D01*
X88500Y281500D02*
X116500D01*
X225000Y288000D02*
Y297000D01*
X255000Y288000D02*
Y297000D01*
X240500Y285500D02*
X243500D01*
X236500Y299500D02*
X243500D01*
X615500Y104500D02*
Y155500D01*
X684500Y104500D02*
Y155500D01*
X615500D02*
X684500D01*
X615500Y104500D02*
X684500D01*
X581500Y293000D02*
Y297000D01*
X588500Y293000D02*
Y297000D01*
X504000Y72500D02*
X536000D01*
X504000Y22500D02*
X536000D01*
X504000D02*
Y72500D01*
X536000Y22500D02*
Y72500D01*
X784233Y176350D02*
X789456D01*
X784233Y197534D02*
Y205350D01*
Y176350D02*
Y184166D01*
Y205350D02*
X789456D01*
X912500Y238500D02*
X927500D01*
X912500Y221500D02*
X927500D01*
X632210Y94525D02*
X647790D01*
Y45475D02*
Y94525D01*
X632210Y45475D02*
X647790D01*
X632210D02*
Y94525D01*
X401209Y298500D02*
X421331D01*
X401209Y281500D02*
X421331D01*
X281061Y105439D02*
Y129561D01*
X263939Y105439D02*
Y129561D01*
X576000Y279000D02*
Y296000D01*
X559000Y279000D02*
Y296000D01*
X242016Y348016D02*
X272984D01*
X242016Y311984D02*
X272984D01*
X258500Y93250D02*
X261500D01*
X258500Y76750D02*
X261500D01*
X909031Y171513D02*
Y188487D01*
X890969Y171513D02*
Y188487D01*
X108750Y172250D02*
X115000D01*
X65000D02*
X71250D01*
X65000Y92750D02*
Y113750D01*
Y131250D02*
Y133750D01*
Y151250D02*
Y172250D01*
X108750Y92750D02*
X115000D01*
X65000D02*
X71250D01*
X115000D02*
Y172250D01*
X470250Y125500D02*
X471250D01*
X470250Y134500D02*
X471250D01*
X121150Y187350D02*
Y189700D01*
Y235300D02*
Y237650D01*
X23850D02*
X121150D01*
X23850Y187350D02*
Y189700D01*
Y235300D02*
Y237650D01*
Y187350D02*
X121150D01*
X835000Y134000D02*
X845000D01*
X835000Y165000D02*
X845000D01*
Y134000D02*
Y165000D01*
X835000Y134000D02*
Y165000D01*
X371500Y302500D02*
X403500D01*
X371500Y352500D02*
X403500D01*
Y302500D02*
Y352500D01*
X371500Y302500D02*
Y352500D01*
X454500Y43000D02*
X460500D01*
X454500Y17000D02*
X460500D01*
X522939Y196061D02*
X547061D01*
X522939Y178939D02*
X547061D01*
X554500Y253000D02*
X560500D01*
X554500Y227000D02*
X560500D01*
X399939Y271000D02*
X420061D01*
X399939Y254000D02*
X420061D01*
X402439Y87454D02*
X422561D01*
X402439Y70454D02*
X422561D01*
X443000Y279000D02*
X447000D01*
X443000Y286000D02*
X447000D01*
X443000Y266500D02*
X447000D01*
X443000Y273500D02*
X447000D01*
X377000Y172000D02*
X383000D01*
X377000Y198000D02*
X383000D01*
X583000Y167000D02*
Y173000D01*
X557000Y167000D02*
Y173000D01*
X500500Y292000D02*
Y298000D01*
X474500Y292000D02*
Y298000D01*
X527939Y218561D02*
X552061D01*
X527939Y201439D02*
X552061D01*
X377000Y209500D02*
X383000D01*
X377000Y235500D02*
X383000D01*
X525500Y137000D02*
Y143000D01*
X499500Y137000D02*
Y143000D01*
X438000Y126500D02*
X442000D01*
X438000Y133500D02*
X442000D01*
X443000Y291500D02*
X447000D01*
X443000Y298500D02*
X447000D01*
X453879Y78045D02*
X478000D01*
X453879Y95167D02*
X478000D01*
X304500Y185500D02*
X310500D01*
X304500Y159500D02*
X310500D01*
X302000Y329500D02*
Y335500D01*
X328000Y329500D02*
Y335500D01*
X402439Y113500D02*
X422561D01*
X402439Y96500D02*
X422561D01*
X567939Y103561D02*
X592061D01*
X567939Y86439D02*
X592061D01*
X506439Y255669D02*
Y279791D01*
X523561Y255669D02*
Y279791D01*
X246750Y184500D02*
X252750D01*
X246750Y210500D02*
X252750D01*
X269939Y53500D02*
X290061D01*
X269939Y36500D02*
X290061D01*
X445439Y53939D02*
X469561D01*
X445439Y71061D02*
X469561D01*
X279013Y283469D02*
X295987D01*
X279013Y301531D02*
X295987D01*
X293000Y203500D02*
X297000D01*
X293000Y196500D02*
X297000D01*
X240500Y36500D02*
X244500D01*
X240500Y43500D02*
X244500D01*
X293000Y216000D02*
X297000D01*
X293000Y209000D02*
X297000D01*
X278000Y31000D02*
X282000D01*
X278000Y24000D02*
X282000D01*
X240500Y21500D02*
X244500D01*
X240500Y28500D02*
X244500D01*
X248000Y150000D02*
Y160000D01*
X217000Y150000D02*
Y160000D01*
X248000D01*
X217000Y150000D02*
X248000D01*
X379500Y40500D02*
X385500D01*
X379500Y14500D02*
X385500D01*
X338000Y34000D02*
X342000D01*
X338000Y41000D02*
X342000D01*
X338000Y21500D02*
X342000D01*
X338000Y28500D02*
X342000D01*
X338000Y9000D02*
X342000D01*
X338000Y16000D02*
X342000D01*
X728561Y97939D02*
Y122061D01*
X711439Y97939D02*
Y122061D01*
X273561Y147939D02*
Y172061D01*
X256439Y147939D02*
Y172061D01*
X847000Y123000D02*
X853000D01*
X847000Y97000D02*
X853000D01*
X767000Y111750D02*
Y117750D01*
X793000Y111750D02*
Y117750D01*
X234939Y49000D02*
X255061D01*
X234939Y66000D02*
X255061D01*
X326061Y20439D02*
Y44561D01*
X308939Y20439D02*
Y44561D01*
X333939Y322939D02*
Y347061D01*
X351061Y322939D02*
Y347061D01*
X567770Y49770D02*
Y53770D01*
X560770Y49770D02*
Y53770D01*
X664246Y28871D02*
X668246D01*
X664246Y35871D02*
X668246D01*
X509000Y85500D02*
Y89500D01*
X516000Y85500D02*
Y89500D01*
X521500Y85500D02*
Y89500D01*
X528500Y85500D02*
Y89500D01*
X583500Y128000D02*
Y132000D01*
X576500Y128000D02*
Y132000D01*
X763500Y245500D02*
Y249500D01*
X756500Y245500D02*
Y249500D01*
X765500Y316500D02*
X769500D01*
X765500Y323500D02*
X769500D01*
X783500Y228000D02*
Y232000D01*
X776500Y228000D02*
Y232000D01*
X923500Y275500D02*
Y279500D01*
X916500Y275500D02*
Y279500D01*
X901500Y265500D02*
Y269500D01*
X908500Y265500D02*
Y269500D01*
X553810Y95129D02*
Y99129D01*
X546809Y95129D02*
Y99129D01*
X588500Y323000D02*
Y327000D01*
X581500Y323000D02*
Y327000D01*
X858664Y351997D02*
X855332D01*
X856998D01*
Y343666D01*
X855332Y342000D01*
X853666D01*
X852000Y343666D01*
X861997Y351997D02*
Y342000D01*
X868661D01*
X878658Y350331D02*
X876992Y351997D01*
X873660D01*
X871994Y350331D01*
Y343666D01*
X873660Y342000D01*
X876992D01*
X878658Y343666D01*
X888655Y351997D02*
X885323D01*
X886989D01*
Y343666D01*
X885323Y342000D01*
X883656D01*
X881990Y343666D01*
X891987Y351997D02*
Y342000D01*
X898652D01*
X908648Y350331D02*
X906982Y351997D01*
X903650D01*
X901984Y350331D01*
Y343666D01*
X903650Y342000D01*
X906982D01*
X908648Y343666D01*
X918645Y351997D02*
X915313D01*
X916979D01*
Y343666D01*
X915313Y342000D01*
X913647D01*
X911981Y343666D01*
X921977Y351997D02*
Y342000D01*
X928642D01*
X938639Y350331D02*
X936973Y351997D01*
X933640D01*
X931974Y350331D01*
Y343666D01*
X933640Y342000D01*
X936973D01*
X938639Y343666D01*
X948635Y351997D02*
X945303D01*
X946969D01*
Y343666D01*
X945303Y342000D01*
X943637D01*
X941971Y343666D01*
X951968Y351997D02*
Y342000D01*
X958632D01*
X968629Y350331D02*
X966963Y351997D01*
X963631D01*
X961965Y350331D01*
Y343666D01*
X963631Y342000D01*
X966963D01*
X968629Y343666D01*
D17*
X607500Y262000D02*
Y274500D01*
Y345000D02*
Y358000D01*
X732500Y262000D02*
Y275000D01*
Y345500D02*
Y358000D01*
X607500Y262000D02*
X732500D01*
X607500Y358000D02*
X732500D01*
X607500Y162000D02*
Y174500D01*
Y245000D02*
Y258000D01*
X732500Y162000D02*
Y175000D01*
Y245500D02*
Y258000D01*
X607500Y162000D02*
X732500D01*
X607500Y258000D02*
X732500D01*
X751498Y246837D02*
X743501D01*
Y250836D01*
X744834Y252169D01*
X747500D01*
X748833Y250836D01*
Y246837D01*
Y249503D02*
X751498Y252169D01*
Y260166D02*
Y254834D01*
X746167Y260166D01*
X744834D01*
X743501Y258833D01*
Y256167D01*
X744834Y254834D01*
X751498Y266831D02*
X743501D01*
X747500Y262832D01*
Y268164D01*
X254834Y112168D02*
X253501Y110836D01*
Y108170D01*
X254834Y106837D01*
X260166D01*
X261499Y108170D01*
Y110836D01*
X260166Y112168D01*
X254834Y114834D02*
X253501Y116167D01*
Y118833D01*
X254834Y120166D01*
X256167D01*
X257500Y118833D01*
Y117500D01*
Y118833D01*
X258833Y120166D01*
X260166D01*
X261499Y118833D01*
Y116167D01*
X260166Y114834D01*
X254834Y122832D02*
X253501Y124164D01*
Y126830D01*
X254834Y128163D01*
X260166D01*
X261499Y126830D01*
Y124164D01*
X260166Y122832D01*
X254834D01*
X379668Y290166D02*
X378335Y291499D01*
X375670D01*
X374337Y290166D01*
Y284834D01*
X375670Y283501D01*
X378335D01*
X379668Y284834D01*
X387666Y283501D02*
X382334D01*
X387666Y288833D01*
Y290166D01*
X386333Y291499D01*
X383667D01*
X382334Y290166D01*
X390332D02*
X391665Y291499D01*
X394330D01*
X395663Y290166D01*
Y288833D01*
X394330Y287500D01*
X392997D01*
X394330D01*
X395663Y286167D01*
Y284834D01*
X394330Y283501D01*
X391665D01*
X390332Y284834D01*
X591499Y260003D02*
X583501D01*
Y264002D01*
X584834Y265335D01*
X587500D01*
X588833Y264002D01*
Y260003D01*
Y262669D02*
X591499Y265335D01*
Y268001D02*
Y270667D01*
Y269334D01*
X583501D01*
X584834Y268001D01*
Y274665D02*
X583501Y275998D01*
Y278664D01*
X584834Y279997D01*
X586167D01*
X587500Y278664D01*
Y277331D01*
Y278664D01*
X588833Y279997D01*
X590166D01*
X591499Y278664D01*
Y275998D01*
X590166Y274665D01*
X576499Y336336D02*
X568501D01*
Y340335D01*
X569834Y341668D01*
X572500D01*
X573833Y340335D01*
Y336336D01*
Y339002D02*
X576499Y341668D01*
Y344334D02*
Y346999D01*
Y345667D01*
X568501D01*
X569834Y344334D01*
X576499Y350998D02*
Y353664D01*
Y352331D01*
X568501D01*
X569834Y350998D01*
X539668Y302666D02*
X538335Y303999D01*
X535670D01*
X534337Y302666D01*
Y297334D01*
X535670Y296001D01*
X538335D01*
X539668Y297334D01*
X547666Y296001D02*
X542334D01*
X547666Y301333D01*
Y302666D01*
X546333Y303999D01*
X543667D01*
X542334Y302666D01*
X555663Y296001D02*
X550332D01*
X555663Y301333D01*
Y302666D01*
X554330Y303999D01*
X551665D01*
X550332Y302666D01*
X563999Y85003D02*
X556001D01*
Y89002D01*
X557334Y90335D01*
X560000D01*
X561333Y89002D01*
Y85003D01*
Y87669D02*
X563999Y90335D01*
Y93001D02*
Y95666D01*
Y94333D01*
X556001D01*
X557334Y93001D01*
Y99665D02*
X556001Y100998D01*
Y103664D01*
X557334Y104997D01*
X562666D01*
X563999Y103664D01*
Y100998D01*
X562666Y99665D01*
X557334D01*
X537500Y144834D02*
Y150166D01*
X536167Y151499D01*
X533501D01*
X532168Y150166D01*
Y144834D01*
X533501Y143501D01*
X536167D01*
X534834Y146167D02*
X537500Y143501D01*
X536167D02*
X537500Y144834D01*
X540166Y143501D02*
X542832D01*
X541499D01*
Y151499D01*
X540166Y150166D01*
X224834Y110335D02*
X223501Y109002D01*
Y106336D01*
X224834Y105003D01*
X230166D01*
X231499Y106336D01*
Y109002D01*
X230166Y110335D01*
X231499Y113001D02*
Y115667D01*
Y114334D01*
X223501D01*
X224834Y113001D01*
Y119665D02*
X223501Y120998D01*
Y123664D01*
X224834Y124997D01*
X226167D01*
X227500Y123664D01*
Y122331D01*
Y123664D01*
X228833Y124997D01*
X230166D01*
X231499Y123664D01*
Y120998D01*
X230166Y119665D01*
X233501Y79668D02*
X234834D01*
X237500Y82334D01*
X234834Y85000D01*
X233501D01*
X237500Y82334D02*
X241499D01*
Y87666D02*
Y90332D01*
Y88999D01*
X233501D01*
X234834Y87666D01*
X636001Y50835D02*
X642666D01*
X643999Y52168D01*
Y54834D01*
X642666Y56167D01*
X636001D01*
Y58833D02*
Y64165D01*
X637334D01*
X642666Y58833D01*
X643999D01*
X121001Y133667D02*
Y131001D01*
Y132334D01*
X127666D01*
X128999Y131001D01*
Y129668D01*
X127666Y128336D01*
X121001Y141664D02*
Y136333D01*
X125000D01*
X123667Y138999D01*
Y140332D01*
X125000Y141664D01*
X127666D01*
X128999Y140332D01*
Y137666D01*
X127666Y136333D01*
X68501Y212500D02*
Y207168D01*
X72500D01*
Y209834D01*
Y207168D01*
X76499D01*
Y215166D02*
Y217832D01*
Y216499D01*
X68501D01*
X69834Y215166D01*
X173617Y252509D02*
X170951D01*
X172284D01*
Y245844D01*
X170951Y244511D01*
X169618D01*
X168286Y245844D01*
X180282Y244511D02*
Y252509D01*
X176283Y248510D01*
X181614D01*
X668335Y311499D02*
X673667D01*
X671001D01*
Y303501D01*
X676333Y310166D02*
X677666Y311499D01*
X680332D01*
X681665Y310166D01*
Y308833D01*
X680332Y307500D01*
X678999D01*
X680332D01*
X681665Y306167D01*
Y304834D01*
X680332Y303501D01*
X677666D01*
X676333Y304834D01*
X896499Y266837D02*
X888501D01*
Y270835D01*
X889834Y272168D01*
X892500D01*
X893833Y270835D01*
Y266837D01*
Y269503D02*
X896499Y272168D01*
Y280166D02*
Y274834D01*
X891167Y280166D01*
X889834D01*
X888501Y278833D01*
Y276167D01*
X889834Y274834D01*
Y282832D02*
X888501Y284165D01*
Y286830D01*
X889834Y288163D01*
X891167D01*
X892500Y286830D01*
X893833Y288163D01*
X895166D01*
X896499Y286830D01*
Y284165D01*
X895166Y282832D01*
X893833D01*
X892500Y284165D01*
X891167Y282832D01*
X889834D01*
X892500Y284165D02*
Y286830D01*
X906837Y293501D02*
Y301499D01*
X910835D01*
X912168Y300166D01*
Y297500D01*
X910835Y296167D01*
X906837D01*
X909503D02*
X912168Y293501D01*
X920166D02*
X914834D01*
X920166Y298833D01*
Y300166D01*
X918833Y301499D01*
X916167D01*
X914834Y300166D01*
X922832Y301499D02*
X928163D01*
Y300166D01*
X922832Y294834D01*
Y293501D01*
X798999Y219337D02*
X791001D01*
Y223335D01*
X792334Y224668D01*
X795000D01*
X796333Y223335D01*
Y219337D01*
Y222003D02*
X798999Y224668D01*
Y232666D02*
Y227334D01*
X793667Y232666D01*
X792334D01*
X791001Y231333D01*
Y228667D01*
X792334Y227334D01*
X791001Y240663D02*
X792334Y237997D01*
X795000Y235332D01*
X797666D01*
X798999Y236665D01*
Y239330D01*
X797666Y240663D01*
X796333D01*
X795000Y239330D01*
Y235332D01*
X836001Y140003D02*
X842666D01*
X843999Y141336D01*
Y144002D01*
X842666Y145335D01*
X836001D01*
X843999Y148001D02*
Y150667D01*
Y149334D01*
X836001D01*
X837334Y148001D01*
Y154665D02*
X836001Y155998D01*
Y158664D01*
X837334Y159997D01*
X842666D01*
X843999Y158664D01*
Y155998D01*
X842666Y154665D01*
X837334D01*
X643335Y133999D02*
Y127334D01*
X644668Y126001D01*
X647334D01*
X648667Y127334D01*
Y133999D01*
X651333Y127334D02*
X652666Y126001D01*
X655332D01*
X656665Y127334D01*
Y132666D01*
X655332Y133999D01*
X652666D01*
X651333Y132666D01*
Y131333D01*
X652666Y130000D01*
X656665D01*
X513667Y50835D02*
X517666D01*
X518999Y52168D01*
Y56167D01*
X513667D01*
X512334Y58833D02*
X511001Y60166D01*
Y62832D01*
X512334Y64165D01*
X513667D01*
X515000Y62832D01*
X516333Y64165D01*
X517666D01*
X518999Y62832D01*
Y60166D01*
X517666Y58833D01*
X516333D01*
X515000Y60166D01*
X513667Y58833D01*
X512334D01*
X515000Y60166D02*
Y62832D01*
X756837Y328501D02*
Y336499D01*
X760835D01*
X762168Y335166D01*
Y332500D01*
X760835Y331167D01*
X756837D01*
X759503D02*
X762168Y328501D01*
X770166D02*
X764834D01*
X770166Y333833D01*
Y335166D01*
X768833Y336499D01*
X766167D01*
X764834Y335166D01*
X778163Y336499D02*
X772832D01*
Y332500D01*
X775497Y333833D01*
X776830D01*
X778163Y332500D01*
Y329834D01*
X776830Y328501D01*
X774165D01*
X772832Y329834D01*
X573999Y119337D02*
X566001D01*
Y123336D01*
X567334Y124668D01*
X570000D01*
X571333Y123336D01*
Y119337D01*
Y122003D02*
X573999Y124668D01*
Y132666D02*
Y127334D01*
X568667Y132666D01*
X567334D01*
X566001Y131333D01*
Y128667D01*
X567334Y127334D01*
Y135332D02*
X566001Y136664D01*
Y139330D01*
X567334Y140663D01*
X568667D01*
X570000Y139330D01*
Y137997D01*
Y139330D01*
X571333Y140663D01*
X572666D01*
X573999Y139330D01*
Y136664D01*
X572666Y135332D01*
X541499Y81837D02*
X533501D01*
Y85836D01*
X534834Y87168D01*
X537500D01*
X538833Y85836D01*
Y81837D01*
Y84503D02*
X541499Y87168D01*
Y95166D02*
Y89834D01*
X536167Y95166D01*
X534834D01*
X533501Y93833D01*
Y91167D01*
X534834Y89834D01*
X541499Y103163D02*
Y97832D01*
X536167Y103163D01*
X534834D01*
X533501Y101830D01*
Y99164D01*
X534834Y97832D01*
X503999Y78170D02*
X496001D01*
Y82168D01*
X497334Y83501D01*
X500000D01*
X501333Y82168D01*
Y78170D01*
Y80836D02*
X503999Y83501D01*
Y91499D02*
Y86167D01*
X498667Y91499D01*
X497334D01*
X496001Y90166D01*
Y87500D01*
X497334Y86167D01*
X503999Y94164D02*
Y96830D01*
Y95497D01*
X496001D01*
X497334Y94164D01*
X688999Y21837D02*
X681001D01*
Y25835D01*
X682334Y27168D01*
X685000D01*
X686333Y25835D01*
Y21837D01*
Y24503D02*
X688999Y27168D01*
Y35166D02*
Y29834D01*
X683667Y35166D01*
X682334D01*
X681001Y33833D01*
Y31167D01*
X682334Y29834D01*
Y37832D02*
X681001Y39165D01*
Y41830D01*
X682334Y43163D01*
X687666D01*
X688999Y41830D01*
Y39165D01*
X687666Y37832D01*
X682334D01*
X581499Y42503D02*
X573501D01*
Y46502D01*
X574834Y47835D01*
X577500D01*
X578833Y46502D01*
Y42503D01*
Y45169D02*
X581499Y47835D01*
Y50501D02*
Y53166D01*
Y51834D01*
X573501D01*
X574834Y50501D01*
X580166Y57165D02*
X581499Y58498D01*
Y61164D01*
X580166Y62497D01*
X574834D01*
X573501Y61164D01*
Y58498D01*
X574834Y57165D01*
X576167D01*
X577500Y58498D01*
Y62497D01*
X913501Y177168D02*
Y171837D01*
X917500D01*
Y174503D01*
Y171837D01*
X921499D01*
X913501Y179834D02*
X921499D01*
Y183833D01*
X920166Y185166D01*
X918833D01*
X917500Y183833D01*
Y179834D01*
Y183833D01*
X916167Y185166D01*
X914834D01*
X913501Y183833D01*
Y179834D01*
X921499Y193163D02*
Y187832D01*
X916167Y193163D01*
X914834D01*
X913501Y191830D01*
Y189165D01*
X914834Y187832D01*
X810835Y193999D02*
Y186001D01*
X814834D01*
X816167Y187334D01*
Y192666D01*
X814834Y193999D01*
X810835D01*
X824165D02*
X818833D01*
Y190000D01*
X821499Y191333D01*
X822832D01*
X824165Y190000D01*
Y187334D01*
X822832Y186001D01*
X820166D01*
X818833Y187334D01*
X915835Y216499D02*
Y208501D01*
X919834D01*
X921167Y209834D01*
Y215166D01*
X919834Y216499D01*
X915835D01*
X927832Y208501D02*
Y216499D01*
X923833Y212500D01*
X929165D01*
X454834Y24668D02*
X453501Y23335D01*
Y20670D01*
X454834Y19337D01*
X460166D01*
X461499Y20670D01*
Y23335D01*
X460166Y24668D01*
X454834Y27334D02*
X453501Y28667D01*
Y31333D01*
X454834Y32666D01*
X456167D01*
X457500Y31333D01*
Y30000D01*
Y31333D01*
X458833Y32666D01*
X460166D01*
X461499Y31333D01*
Y28667D01*
X460166Y27334D01*
X454834Y35332D02*
X453501Y36665D01*
Y39330D01*
X454834Y40663D01*
X456167D01*
X457500Y39330D01*
Y37997D01*
Y39330D01*
X458833Y40663D01*
X460166D01*
X461499Y39330D01*
Y36665D01*
X460166Y35332D01*
X339668Y315166D02*
X338335Y316499D01*
X335670D01*
X334337Y315166D01*
Y309834D01*
X335670Y308501D01*
X338335D01*
X339668Y309834D01*
X342334Y315166D02*
X343667Y316499D01*
X346333D01*
X347666Y315166D01*
Y313833D01*
X346333Y312500D01*
X345000D01*
X346333D01*
X347666Y311167D01*
Y309834D01*
X346333Y308501D01*
X343667D01*
X342334Y309834D01*
X355663Y308501D02*
X350332D01*
X355663Y313833D01*
Y315166D01*
X354330Y316499D01*
X351665D01*
X350332Y315166D01*
X299834Y23501D02*
X298501Y22168D01*
Y19503D01*
X299834Y18170D01*
X305166D01*
X306499Y19503D01*
Y22168D01*
X305166Y23501D01*
X299834Y26167D02*
X298501Y27500D01*
Y30166D01*
X299834Y31499D01*
X301167D01*
X302500Y30166D01*
Y28833D01*
Y30166D01*
X303833Y31499D01*
X305166D01*
X306499Y30166D01*
Y27500D01*
X305166Y26167D01*
X306499Y34165D02*
Y36830D01*
Y35497D01*
X298501D01*
X299834Y34165D01*
X224834Y52168D02*
X223501Y50835D01*
Y48170D01*
X224834Y46837D01*
X230166D01*
X231499Y48170D01*
Y50835D01*
X230166Y52168D01*
X231499Y60166D02*
Y54834D01*
X226167Y60166D01*
X224834D01*
X223501Y58833D01*
Y56167D01*
X224834Y54834D01*
X230166Y62832D02*
X231499Y64165D01*
Y66830D01*
X230166Y68163D01*
X224834D01*
X223501Y66830D01*
Y64165D01*
X224834Y62832D01*
X226167D01*
X227500Y64165D01*
Y68163D01*
X774668Y117666D02*
X773335Y118999D01*
X770670D01*
X769337Y117666D01*
Y112334D01*
X770670Y111001D01*
X773335D01*
X774668Y112334D01*
X782666Y111001D02*
X777334D01*
X782666Y116333D01*
Y117666D01*
X781333Y118999D01*
X778667D01*
X777334Y117666D01*
X785332D02*
X786665Y118999D01*
X789330D01*
X790663Y117666D01*
Y116333D01*
X789330Y115000D01*
X790663Y113667D01*
Y112334D01*
X789330Y111001D01*
X786665D01*
X785332Y112334D01*
Y113667D01*
X786665Y115000D01*
X785332Y116333D01*
Y117666D01*
X786665Y115000D02*
X789330D01*
X847334Y104668D02*
X846001Y103336D01*
Y100670D01*
X847334Y99337D01*
X852666D01*
X853999Y100670D01*
Y103336D01*
X852666Y104668D01*
X853999Y112666D02*
Y107334D01*
X848667Y112666D01*
X847334D01*
X846001Y111333D01*
Y108667D01*
X847334Y107334D01*
X846001Y115332D02*
Y120663D01*
X847334D01*
X852666Y115332D01*
X853999D01*
X277334Y139668D02*
X276001Y138336D01*
Y135670D01*
X277334Y134337D01*
X282666D01*
X283999Y135670D01*
Y138336D01*
X282666Y139668D01*
X283999Y147666D02*
Y142334D01*
X278667Y147666D01*
X277334D01*
X276001Y146333D01*
Y143667D01*
X277334Y142334D01*
X276001Y155663D02*
X277334Y152997D01*
X280000Y150332D01*
X282666D01*
X283999Y151664D01*
Y154330D01*
X282666Y155663D01*
X281333D01*
X280000Y154330D01*
Y150332D01*
X742666Y117832D02*
X743999Y119164D01*
Y121830D01*
X742666Y123163D01*
X737334D01*
X736001Y121830D01*
Y119164D01*
X737334Y117832D01*
X736001Y109834D02*
Y115166D01*
X741333Y109834D01*
X742666D01*
X743999Y111167D01*
Y113833D01*
X742666Y115166D01*
X743999Y101837D02*
Y107168D01*
X740000D01*
X741333Y104503D01*
Y103170D01*
X740000Y101837D01*
X737334D01*
X736001Y103170D01*
Y105835D01*
X737334Y107168D01*
X307503Y8501D02*
Y16499D01*
X311502D01*
X312835Y15166D01*
Y12500D01*
X311502Y11167D01*
X307503D01*
X310169D02*
X312835Y8501D01*
X315501D02*
X318166D01*
X316834D01*
Y16499D01*
X315501Y15166D01*
X322165Y16499D02*
X327497D01*
Y15166D01*
X322165Y9834D01*
Y8501D01*
X377503Y46001D02*
Y53999D01*
X381502D01*
X382835Y52666D01*
Y50000D01*
X381502Y48667D01*
X377503D01*
X380169D02*
X382835Y46001D01*
X385501D02*
X388167D01*
X386834D01*
Y53999D01*
X385501Y52666D01*
X397497Y53999D02*
X394831Y52666D01*
X392165Y50000D01*
Y47334D01*
X393498Y46001D01*
X396164D01*
X397497Y47334D01*
Y48667D01*
X396164Y50000D01*
X392165D01*
X377503Y56001D02*
Y63999D01*
X381502D01*
X382835Y62666D01*
Y60000D01*
X381502Y58667D01*
X377503D01*
X380169D02*
X382835Y56001D01*
X385501D02*
X388167D01*
X386834D01*
Y63999D01*
X385501Y62666D01*
X397497Y56001D02*
X392165D01*
X397497Y61333D01*
Y62666D01*
X396164Y63999D01*
X393498D01*
X392165Y62666D01*
X379834Y22168D02*
X378501Y20835D01*
Y18170D01*
X379834Y16837D01*
X385166D01*
X386499Y18170D01*
Y20835D01*
X385166Y22168D01*
X386499Y30166D02*
Y24834D01*
X381167Y30166D01*
X379834D01*
X378501Y28833D01*
Y26167D01*
X379834Y24834D01*
X386499Y36830D02*
X378501D01*
X382500Y32832D01*
Y38163D01*
X340835Y123999D02*
Y117334D01*
X342168Y116001D01*
X344834D01*
X346167Y117334D01*
Y123999D01*
X354165Y116001D02*
X348833D01*
X354165Y121333D01*
Y122666D01*
X352832Y123999D01*
X350166D01*
X348833Y122666D01*
X380835Y328999D02*
Y322334D01*
X382168Y321001D01*
X384834D01*
X386167Y322334D01*
Y328999D01*
X388833Y327666D02*
X390166Y328999D01*
X392832D01*
X394165Y327666D01*
Y326333D01*
X392832Y325000D01*
X391499D01*
X392832D01*
X394165Y323667D01*
Y322334D01*
X392832Y321001D01*
X390166D01*
X388833Y322334D01*
X225835Y158999D02*
Y152334D01*
X227168Y151001D01*
X229834D01*
X231167Y152334D01*
Y158999D01*
X237832Y151001D02*
Y158999D01*
X233833Y155000D01*
X239165D01*
X210835Y23501D02*
Y31499D01*
X214834D01*
X216167Y30166D01*
Y27500D01*
X214834Y26167D01*
X210835D01*
X213501D02*
X216167Y23501D01*
X218833Y31499D02*
X224165D01*
Y30166D01*
X218833Y24834D01*
Y23501D01*
X278335Y11001D02*
Y18999D01*
X282334D01*
X283667Y17666D01*
Y15000D01*
X282334Y13667D01*
X278335D01*
X281001D02*
X283667Y11001D01*
X286333Y12334D02*
X287666Y11001D01*
X290332D01*
X291665Y12334D01*
Y17666D01*
X290332Y18999D01*
X287666D01*
X286333Y17666D01*
Y16333D01*
X287666Y15000D01*
X291665D01*
X300835Y221001D02*
Y228999D01*
X304834D01*
X306167Y227666D01*
Y225000D01*
X304834Y223667D01*
X300835D01*
X303501D02*
X306167Y221001D01*
X314165Y228999D02*
X308833D01*
Y225000D01*
X311499Y226333D01*
X312832D01*
X314165Y225000D01*
Y222334D01*
X312832Y221001D01*
X310166D01*
X308833Y222334D01*
X213335Y36001D02*
Y43999D01*
X217334D01*
X218667Y42666D01*
Y40000D01*
X217334Y38667D01*
X213335D01*
X216001D02*
X218667Y36001D01*
X221333Y42666D02*
X222666Y43999D01*
X225332D01*
X226665Y42666D01*
Y41333D01*
X225332Y40000D01*
X226665Y38667D01*
Y37334D01*
X225332Y36001D01*
X222666D01*
X221333Y37334D01*
Y38667D01*
X222666Y40000D01*
X221333Y41333D01*
Y42666D01*
X222666Y40000D02*
X225332D01*
X315835Y196001D02*
Y203999D01*
X319834D01*
X321167Y202666D01*
Y200000D01*
X319834Y198667D01*
X315835D01*
X318501D02*
X321167Y196001D01*
X329165Y203999D02*
X326499Y202666D01*
X323833Y200000D01*
Y197334D01*
X325166Y196001D01*
X327832D01*
X329165Y197334D01*
Y198667D01*
X327832Y200000D01*
X323833D01*
X283501Y296499D02*
X278170D01*
Y292500D01*
X280835D01*
X278170D01*
Y288501D01*
X286167Y296499D02*
Y288501D01*
X290166D01*
X291499Y289834D01*
Y291167D01*
X290166Y292500D01*
X286167D01*
X290166D01*
X291499Y293833D01*
Y295166D01*
X290166Y296499D01*
X286167D01*
X294165Y288501D02*
X296830D01*
X295497D01*
Y296499D01*
X294165Y295166D01*
X233335Y296499D02*
Y288501D01*
X237334D01*
X238667Y289834D01*
Y295166D01*
X237334Y296499D01*
X233335D01*
X246665Y288501D02*
X241333D01*
X246665Y293833D01*
Y295166D01*
X245332Y296499D01*
X242666D01*
X241333Y295166D01*
X434834Y59668D02*
X433501Y58335D01*
Y55670D01*
X434834Y54337D01*
X440166D01*
X441499Y55670D01*
Y58335D01*
X440166Y59668D01*
X441499Y67666D02*
Y62334D01*
X436167Y67666D01*
X434834D01*
X433501Y66333D01*
Y63667D01*
X434834Y62334D01*
Y70332D02*
X433501Y71665D01*
Y74330D01*
X434834Y75663D01*
X440166D01*
X441499Y74330D01*
Y71665D01*
X440166Y70332D01*
X434834D01*
X257500Y332666D02*
X256167Y333999D01*
X253501D01*
X252168Y332666D01*
Y327334D01*
X253501Y326001D01*
X256167D01*
X257500Y327334D01*
X260166Y326001D02*
X262832D01*
X261499D01*
Y333999D01*
X260166Y332666D01*
X275907Y62666D02*
X274574Y63999D01*
X271908D01*
X270575Y62666D01*
Y57334D01*
X271908Y56001D01*
X274574D01*
X275907Y57334D01*
X278573Y56001D02*
X281238D01*
X279905D01*
Y63999D01*
X278573Y62666D01*
X285237Y63999D02*
X290569D01*
Y62666D01*
X285237Y57334D01*
Y56001D01*
X247084Y192835D02*
X245751Y191502D01*
Y188836D01*
X247084Y187503D01*
X252416D01*
X253749Y188836D01*
Y191502D01*
X252416Y192835D01*
X253749Y195501D02*
Y198167D01*
Y196834D01*
X245751D01*
X247084Y195501D01*
X245751Y207497D02*
Y202165D01*
X249750D01*
X248417Y204831D01*
Y206164D01*
X249750Y207497D01*
X252416D01*
X253749Y206164D01*
Y203498D01*
X252416Y202165D01*
X515335Y292666D02*
X514002Y293999D01*
X511336D01*
X510003Y292666D01*
Y287334D01*
X511336Y286001D01*
X514002D01*
X515335Y287334D01*
X518001Y286001D02*
X520666D01*
X519334D01*
Y293999D01*
X518001Y292666D01*
X529997Y286001D02*
X524665D01*
X529997Y291333D01*
Y292666D01*
X528664Y293999D01*
X525998D01*
X524665Y292666D01*
X576001Y82666D02*
X574668Y83999D01*
X572003D01*
X570670Y82666D01*
Y77334D01*
X572003Y76001D01*
X574668D01*
X576001Y77334D01*
X583999Y76001D02*
X578667D01*
X583999Y81333D01*
Y82666D01*
X582666Y83999D01*
X580000D01*
X578667Y82666D01*
X586665Y76001D02*
X589330D01*
X587998D01*
Y83999D01*
X586665Y82666D01*
X389834Y102835D02*
X388501Y101502D01*
Y98836D01*
X389834Y97503D01*
X395166D01*
X396499Y98836D01*
Y101502D01*
X395166Y102835D01*
X396499Y105501D02*
Y108166D01*
Y106833D01*
X388501D01*
X389834Y105501D01*
X388501Y117497D02*
X389834Y114831D01*
X392500Y112165D01*
X395166D01*
X396499Y113498D01*
Y116164D01*
X395166Y117497D01*
X393833D01*
X392500Y116164D01*
Y112165D01*
X310335Y335166D02*
X309002Y336499D01*
X306336D01*
X305003Y335166D01*
Y329834D01*
X306336Y328501D01*
X309002D01*
X310335Y329834D01*
X313001Y328501D02*
X315667D01*
X314334D01*
Y336499D01*
X313001Y335166D01*
X323664Y328501D02*
Y336499D01*
X319665Y332500D01*
X324997D01*
X304834Y167835D02*
X303501Y166502D01*
Y163836D01*
X304834Y162503D01*
X310166D01*
X311499Y163836D01*
Y166502D01*
X310166Y167835D01*
X311499Y170501D02*
Y173167D01*
Y171834D01*
X303501D01*
X304834Y170501D01*
Y177165D02*
X303501Y178498D01*
Y181164D01*
X304834Y182497D01*
X306167D01*
X307500Y181164D01*
X308833Y182497D01*
X310166D01*
X311499Y181164D01*
Y178498D01*
X310166Y177165D01*
X308833D01*
X307500Y178498D01*
X306167Y177165D01*
X304834D01*
X307500Y178498D02*
Y181164D01*
X460335Y105166D02*
X459002Y106499D01*
X456336D01*
X455003Y105166D01*
Y99834D01*
X456336Y98501D01*
X459002D01*
X460335Y99834D01*
X463001Y98501D02*
X465667D01*
X464334D01*
Y106499D01*
X463001Y105166D01*
X469665Y99834D02*
X470998Y98501D01*
X473664D01*
X474997Y99834D01*
Y105166D01*
X473664Y106499D01*
X470998D01*
X469665Y105166D01*
Y103833D01*
X470998Y102500D01*
X474997D01*
X443335Y329576D02*
Y337574D01*
X447334D01*
X448667Y336241D01*
Y333575D01*
X447334Y332242D01*
X443335D01*
X446001D02*
X448667Y329576D01*
X451333Y336241D02*
X452666Y337574D01*
X455332D01*
X456665Y336241D01*
Y334908D01*
X455332Y333575D01*
X453999D01*
X455332D01*
X456665Y332242D01*
Y330909D01*
X455332Y329576D01*
X452666D01*
X451333Y330909D01*
X433335Y138501D02*
Y146499D01*
X437334D01*
X438667Y145166D01*
Y142500D01*
X437334Y141167D01*
X433335D01*
X436001D02*
X438667Y138501D01*
X445332D02*
Y146499D01*
X441333Y142500D01*
X446665D01*
X465835Y146499D02*
Y138501D01*
X469834D01*
X471167Y139834D01*
Y145166D01*
X469834Y146499D01*
X465835D01*
X473833Y145166D02*
X475166Y146499D01*
X477832D01*
X479165Y145166D01*
Y143833D01*
X477832Y142500D01*
X476499D01*
X477832D01*
X479165Y141167D01*
Y139834D01*
X477832Y138501D01*
X475166D01*
X473833Y139834D01*
X511167Y142666D02*
X509834Y143999D01*
X507168D01*
X505835Y142666D01*
Y137334D01*
X507168Y136001D01*
X509834D01*
X511167Y137334D01*
X519165Y143999D02*
X516499Y142666D01*
X513833Y140000D01*
Y137334D01*
X515166Y136001D01*
X517832D01*
X519165Y137334D01*
Y138667D01*
X517832Y140000D01*
X513833D01*
X377334Y217835D02*
X376001Y216502D01*
Y213836D01*
X377334Y212503D01*
X382666D01*
X383999Y213836D01*
Y216502D01*
X382666Y217835D01*
X383999Y220501D02*
Y223167D01*
Y221834D01*
X376001D01*
X377334Y220501D01*
Y227165D02*
X376001Y228498D01*
Y231164D01*
X377334Y232497D01*
X382666D01*
X383999Y231164D01*
Y228498D01*
X382666Y227165D01*
X377334D01*
X563667Y217666D02*
X562334Y218999D01*
X559668D01*
X558335Y217666D01*
Y212334D01*
X559668Y211001D01*
X562334D01*
X563667Y212334D01*
X566333Y218999D02*
X571665D01*
Y217666D01*
X566333Y212334D01*
Y211001D01*
X486167Y297666D02*
X484834Y298999D01*
X482168D01*
X480835Y297666D01*
Y292334D01*
X482168Y291001D01*
X484834D01*
X486167Y292334D01*
X488833D02*
X490166Y291001D01*
X492832D01*
X494165Y292334D01*
Y297666D01*
X492832Y298999D01*
X490166D01*
X488833Y297666D01*
Y296333D01*
X490166Y295000D01*
X494165D01*
X568667Y172666D02*
X567334Y173999D01*
X564668D01*
X563335Y172666D01*
Y167334D01*
X564668Y166001D01*
X567334D01*
X568667Y167334D01*
X571333Y172666D02*
X572666Y173999D01*
X575332D01*
X576665Y172666D01*
Y171333D01*
X575332Y170000D01*
X576665Y168667D01*
Y167334D01*
X575332Y166001D01*
X572666D01*
X571333Y167334D01*
Y168667D01*
X572666Y170000D01*
X571333Y171333D01*
Y172666D01*
X572666Y170000D02*
X575332D01*
X377334Y181668D02*
X376001Y180335D01*
Y177669D01*
X377334Y176336D01*
X382666D01*
X383999Y177669D01*
Y180335D01*
X382666Y181668D01*
X383999Y184334D02*
Y186999D01*
Y185667D01*
X376001D01*
X377334Y184334D01*
X383999Y190998D02*
Y193664D01*
Y192331D01*
X376001D01*
X377334Y190998D01*
X443335Y306001D02*
Y313999D01*
X447334D01*
X448667Y312666D01*
Y310000D01*
X447334Y308667D01*
X443335D01*
X446001D02*
X448667Y306001D01*
X456665D02*
X451333D01*
X456665Y311333D01*
Y312666D01*
X455332Y313999D01*
X452666D01*
X451333Y312666D01*
X444668Y317789D02*
Y325786D01*
X448667D01*
X450000Y324453D01*
Y321787D01*
X448667Y320454D01*
X444668D01*
X447334D02*
X450000Y317789D01*
X452666D02*
X455332D01*
X453999D01*
Y325786D01*
X452666Y324453D01*
X389834Y81167D02*
X388501Y79834D01*
Y77168D01*
X389834Y75835D01*
X395166D01*
X396499Y77168D01*
Y79834D01*
X395166Y81167D01*
X388501Y89164D02*
Y83833D01*
X392500D01*
X391167Y86499D01*
Y87832D01*
X392500Y89164D01*
X395166D01*
X396499Y87832D01*
Y85166D01*
X395166Y83833D01*
X409937Y250166D02*
X408604Y251499D01*
X405938D01*
X404605Y250166D01*
Y244834D01*
X405938Y243501D01*
X408604D01*
X409937Y244834D01*
X416602Y243501D02*
Y251499D01*
X412603Y247500D01*
X417934D01*
X554834Y238667D02*
X553501Y237334D01*
Y234668D01*
X554834Y233335D01*
X560166D01*
X561499Y234668D01*
Y237334D01*
X560166Y238667D01*
X554834Y241333D02*
X553501Y242666D01*
Y245332D01*
X554834Y246665D01*
X556167D01*
X557500Y245332D01*
Y243999D01*
Y245332D01*
X558833Y246665D01*
X560166D01*
X561499Y245332D01*
Y242666D01*
X560166Y241333D01*
X562741Y194047D02*
X564074Y195380D01*
Y198046D01*
X562741Y199378D01*
X557409D01*
X556076Y198046D01*
Y195380D01*
X557409Y194047D01*
X556076Y186049D02*
Y191381D01*
X561408Y186049D01*
X562741D01*
X564074Y187382D01*
Y190048D01*
X562741Y191381D01*
X459668Y211499D02*
Y204834D01*
X461001Y203501D01*
X463667D01*
X465000Y204834D01*
Y211499D01*
X467666Y203501D02*
X470332D01*
X468999D01*
Y211499D01*
X467666Y210166D01*
X669668Y213999D02*
X675000D01*
X672334D01*
Y206001D01*
X677666D02*
X680332D01*
X678999D01*
Y213999D01*
X677666Y212666D01*
M02*
