G04*
G04 #@! TF.GenerationSoftware,Altium Limited,Altium Designer,23.2.1 (34)*
G04*
G04 Layer_Physical_Order=2*
G04 Layer_Color=16711680*
%FSLAX44Y44*%
%MOMM*%
G71*
G04*
G04 #@! TF.SameCoordinates,C9E59ACA-6E94-426F-9901-F0231D443E17*
G04*
G04*
G04 #@! TF.FilePolarity,Positive*
G04*
G01*
G75*
%ADD15C,0.2540*%
%ADD85C,0.3810*%
%ADD86C,0.5000*%
%ADD91C,1.1520*%
%ADD93C,1.8000*%
%ADD95C,10.0000*%
%ADD96O,5.0800X2.5400*%
%ADD97C,0.7620*%
G36*
X650000Y187500D02*
X627500Y165000D01*
Y29463D01*
X626270Y28641D01*
Y25000D01*
Y21359D01*
X627500Y20537D01*
Y6028D01*
X132446D01*
X130645Y6028D01*
X127074Y6499D01*
X123595Y7431D01*
X120267Y8809D01*
X117148Y10610D01*
X114290Y12803D01*
X111743Y15350D01*
X109550Y18207D01*
X107749Y21327D01*
X106371Y24655D01*
X105438Y28134D01*
X104968Y31705D01*
X104968Y33506D01*
Y42066D01*
X104951Y42152D01*
X104963Y42239D01*
X104875Y43555D01*
X104807Y43805D01*
X104789Y44064D01*
X104097Y46605D01*
X103944Y46912D01*
X103830Y47237D01*
X102495Y49507D01*
X102775Y50749D01*
X111061D01*
X123898Y63586D01*
X125157Y63420D01*
X127729Y58965D01*
X131820Y53633D01*
X136573Y48881D01*
X141905Y44789D01*
X147725Y41429D01*
X153934Y38857D01*
X160426Y37117D01*
X167090Y36240D01*
X173810D01*
X180474Y37117D01*
X186966Y38857D01*
X193175Y41429D01*
X198995Y44789D01*
X204327Y48881D01*
X209079Y53633D01*
X213171Y58965D01*
X216531Y64785D01*
X219103Y70994D01*
X220843Y77486D01*
X221720Y84150D01*
Y90870D01*
X220843Y97534D01*
X219103Y104026D01*
X216531Y110235D01*
X213171Y116055D01*
X209079Y121387D01*
X204327Y126139D01*
X198995Y130231D01*
X193175Y133591D01*
X187500Y135942D01*
Y192500D01*
X220000Y225000D01*
Y267500D01*
X197500Y290000D01*
X130000D01*
X102495Y317505D01*
X103831Y319774D01*
X103944Y320099D01*
X104097Y320407D01*
X104789Y322948D01*
X104808Y323206D01*
X104875Y323457D01*
X104963Y324773D01*
X104951Y324860D01*
X104968Y324945D01*
X104968Y333508D01*
X104968Y335308D01*
X105439Y338879D01*
X106371Y342358D01*
X107750Y345686D01*
X109551Y348805D01*
X111743Y351663D01*
X114290Y354210D01*
X117148Y356402D01*
X120267Y358203D01*
X123595Y359581D01*
X127074Y360513D01*
X130645Y360984D01*
X132446Y360984D01*
X220993D01*
X650000Y360984D01*
Y187500D01*
D02*
G37*
G36*
X130000Y282500D02*
X170000D01*
X182004Y270496D01*
X181349Y269517D01*
X181251Y269453D01*
X177094Y270280D01*
X172806D01*
X168600Y269443D01*
X164638Y267802D01*
X161072Y265420D01*
X158040Y262388D01*
X155658Y258822D01*
X154017Y254860D01*
X153180Y250654D01*
Y246366D01*
X154017Y242160D01*
X155658Y238198D01*
X158040Y234632D01*
X161072Y231600D01*
X164638Y229218D01*
X168600Y227577D01*
X172806Y226740D01*
X177094D01*
X181300Y227577D01*
X183944Y228672D01*
X185000Y227966D01*
Y197500D01*
X180000Y192500D01*
Y138928D01*
X179045Y138091D01*
X173810Y138780D01*
X167090D01*
X160426Y137903D01*
X153934Y136163D01*
X147725Y133591D01*
X141905Y130231D01*
X136573Y126139D01*
X131820Y121387D01*
X127729Y116055D01*
X124369Y110235D01*
X121797Y104026D01*
X120057Y97534D01*
X119180Y90870D01*
Y84150D01*
X119758Y79758D01*
X94982Y54982D01*
X29389Y91423D01*
X26625Y92958D01*
X21555Y96734D01*
X17030Y101149D01*
X13129Y106124D01*
X9923Y111573D01*
X7468Y117399D01*
X5806Y123499D01*
X4968Y129765D01*
Y132926D01*
Y234086D01*
X4968Y237247D01*
X5806Y243513D01*
X7468Y249613D01*
X9923Y255438D01*
X13129Y260887D01*
X17030Y265863D01*
X21555Y270278D01*
X26625Y274053D01*
X29389Y275589D01*
X29389Y275589D01*
X98510Y313990D01*
X130000Y282500D01*
D02*
G37*
G36*
X1066973Y360552D02*
X1069016Y359706D01*
X1070854Y358478D01*
X1072418Y356914D01*
X1073646Y355076D01*
X1074492Y353033D01*
X1074924Y350865D01*
Y349759D01*
Y288506D01*
X1074923Y284314D01*
X1073957Y275985D01*
X1072036Y267824D01*
X1069187Y259938D01*
X1065449Y252434D01*
X1060870Y245411D01*
X1055511Y238962D01*
X1049445Y233174D01*
X1042752Y228124D01*
X1035522Y223880D01*
X1027850Y220497D01*
X1019840Y218022D01*
X1015718Y217254D01*
X1015682Y217239D01*
X1015643Y217239D01*
X1012745Y216609D01*
X1012638Y216562D01*
X1012522Y216550D01*
X1006865Y214781D01*
X1006729Y214707D01*
X1006577Y214672D01*
X1001169Y212246D01*
X1001043Y212156D01*
X1000897Y212103D01*
X995815Y209053D01*
X995700Y208949D01*
X995561Y208879D01*
X990876Y205248D01*
X990774Y205131D01*
X990644Y205046D01*
X986423Y200885D01*
X986335Y200757D01*
X986217Y200657D01*
X982518Y196025D01*
X982447Y195887D01*
X982341Y195774D01*
X979217Y190736D01*
X979175Y190627D01*
X979104Y190535D01*
X977771Y187886D01*
X977761Y187848D01*
X977738Y187817D01*
X905751Y33441D01*
X904326Y30385D01*
X900641Y24737D01*
X896194Y19667D01*
X891075Y15275D01*
X885388Y11652D01*
X879245Y8868D01*
X872770Y6981D01*
X866094Y6028D01*
X862722Y6028D01*
X650000D01*
Y90000D01*
X660000Y100000D01*
X670000D01*
X680000Y110000D01*
Y150000D01*
X700000Y170000D01*
Y360984D01*
X1063700Y360984D01*
X1064805D01*
X1066973Y360552D01*
D02*
G37*
%LPC*%
G36*
X126270Y356098D02*
Y353770D01*
X128598D01*
X128230Y354658D01*
X127158Y355730D01*
X126270Y356098D01*
D02*
G37*
G36*
X123730D02*
X122842Y355730D01*
X121770Y354658D01*
X121402Y353770D01*
X123730D01*
Y356098D01*
D02*
G37*
G36*
X613770Y353598D02*
Y351270D01*
X616098D01*
X615730Y352158D01*
X614658Y353230D01*
X613770Y353598D01*
D02*
G37*
G36*
X611230D02*
X610342Y353230D01*
X609270Y352158D01*
X608902Y351270D01*
X611230D01*
Y353598D01*
D02*
G37*
G36*
X581270D02*
Y351270D01*
X583598D01*
X583230Y352158D01*
X582158Y353230D01*
X581270Y353598D01*
D02*
G37*
G36*
X578730D02*
X577842Y353230D01*
X576770Y352158D01*
X576402Y351270D01*
X578730D01*
Y353598D01*
D02*
G37*
G36*
X553770D02*
Y351270D01*
X556098D01*
X555730Y352158D01*
X554658Y353230D01*
X553770Y353598D01*
D02*
G37*
G36*
X551230D02*
X550342Y353230D01*
X549270Y352158D01*
X548902Y351270D01*
X551230D01*
Y353598D01*
D02*
G37*
G36*
X526270D02*
Y351270D01*
X528598D01*
X528230Y352158D01*
X527158Y353230D01*
X526270Y353598D01*
D02*
G37*
G36*
X523730D02*
X522842Y353230D01*
X521770Y352158D01*
X521402Y351270D01*
X523730D01*
Y353598D01*
D02*
G37*
G36*
X501270D02*
Y351270D01*
X503598D01*
X503230Y352158D01*
X502158Y353230D01*
X501270Y353598D01*
D02*
G37*
G36*
X498730D02*
X497842Y353230D01*
X496770Y352158D01*
X496402Y351270D01*
X498730D01*
Y353598D01*
D02*
G37*
G36*
X431270D02*
Y351270D01*
X433598D01*
X433230Y352158D01*
X432158Y353230D01*
X431270Y353598D01*
D02*
G37*
G36*
X428730D02*
X427842Y353230D01*
X426770Y352158D01*
X426402Y351270D01*
X428730D01*
Y353598D01*
D02*
G37*
G36*
X381270D02*
Y351270D01*
X383598D01*
X383230Y352158D01*
X382158Y353230D01*
X381270Y353598D01*
D02*
G37*
G36*
X378730D02*
X377842Y353230D01*
X376770Y352158D01*
X376402Y351270D01*
X378730D01*
Y353598D01*
D02*
G37*
G36*
X261270D02*
Y351270D01*
X263598D01*
X263230Y352158D01*
X262158Y353230D01*
X261270Y353598D01*
D02*
G37*
G36*
X258730D02*
X257842Y353230D01*
X256770Y352158D01*
X256402Y351270D01*
X258730D01*
Y353598D01*
D02*
G37*
G36*
X128598Y351230D02*
X126270D01*
Y348902D01*
X127158Y349270D01*
X128230Y350342D01*
X128598Y351230D01*
D02*
G37*
G36*
X123730D02*
X121402D01*
X121770Y350342D01*
X122842Y349270D01*
X123730Y348902D01*
Y351230D01*
D02*
G37*
G36*
X616098Y348730D02*
X613770D01*
Y346402D01*
X614658Y346770D01*
X615730Y347842D01*
X616098Y348730D01*
D02*
G37*
G36*
X611230D02*
X608902D01*
X609270Y347842D01*
X610342Y346770D01*
X611230Y346402D01*
Y348730D01*
D02*
G37*
G36*
X583598D02*
X581270D01*
Y346402D01*
X582158Y346770D01*
X583230Y347842D01*
X583598Y348730D01*
D02*
G37*
G36*
X578730D02*
X576402D01*
X576770Y347842D01*
X577842Y346770D01*
X578730Y346402D01*
Y348730D01*
D02*
G37*
G36*
X556098D02*
X553770D01*
Y346402D01*
X554658Y346770D01*
X555730Y347842D01*
X556098Y348730D01*
D02*
G37*
G36*
X551230D02*
X548902D01*
X549270Y347842D01*
X550342Y346770D01*
X551230Y346402D01*
Y348730D01*
D02*
G37*
G36*
X528598D02*
X526270D01*
Y346402D01*
X527158Y346770D01*
X528230Y347842D01*
X528598Y348730D01*
D02*
G37*
G36*
X523730D02*
X521402D01*
X521770Y347842D01*
X522842Y346770D01*
X523730Y346402D01*
Y348730D01*
D02*
G37*
G36*
X503598D02*
X501270D01*
Y346402D01*
X502158Y346770D01*
X503230Y347842D01*
X503598Y348730D01*
D02*
G37*
G36*
X498730D02*
X496402D01*
X496770Y347842D01*
X497842Y346770D01*
X498730Y346402D01*
Y348730D01*
D02*
G37*
G36*
X433598D02*
X431270D01*
Y346402D01*
X432158Y346770D01*
X433230Y347842D01*
X433598Y348730D01*
D02*
G37*
G36*
X428730D02*
X426402D01*
X426770Y347842D01*
X427842Y346770D01*
X428730Y346402D01*
Y348730D01*
D02*
G37*
G36*
X383598D02*
X381270D01*
Y346402D01*
X382158Y346770D01*
X383230Y347842D01*
X383598Y348730D01*
D02*
G37*
G36*
X378730D02*
X376402D01*
X376770Y347842D01*
X377842Y346770D01*
X378730Y346402D01*
Y348730D01*
D02*
G37*
G36*
X263598D02*
X261270D01*
Y346402D01*
X262158Y346770D01*
X263230Y347842D01*
X263598Y348730D01*
D02*
G37*
G36*
X258730D02*
X256402D01*
X256770Y347842D01*
X257842Y346770D01*
X258730Y346402D01*
Y348730D01*
D02*
G37*
G36*
X293770Y348598D02*
Y346270D01*
X296098D01*
X295730Y347158D01*
X294658Y348230D01*
X293770Y348598D01*
D02*
G37*
G36*
X291230D02*
X290342Y348230D01*
X289270Y347158D01*
X288902Y346270D01*
X291230D01*
Y348598D01*
D02*
G37*
G36*
X126270Y346098D02*
Y343770D01*
X128598D01*
X128230Y344658D01*
X127158Y345730D01*
X126270Y346098D01*
D02*
G37*
G36*
X123730D02*
X122842Y345730D01*
X121770Y344658D01*
X121402Y343770D01*
X123730D01*
Y346098D01*
D02*
G37*
G36*
X296098Y343730D02*
X293770D01*
Y341402D01*
X294658Y341770D01*
X295730Y342842D01*
X296098Y343730D01*
D02*
G37*
G36*
X291230D02*
X288902D01*
X289270Y342842D01*
X290342Y341770D01*
X291230Y341402D01*
Y343730D01*
D02*
G37*
G36*
X128598Y341230D02*
X126270D01*
Y338902D01*
X127158Y339270D01*
X128230Y340342D01*
X128598Y341230D01*
D02*
G37*
G36*
X123730D02*
X121402D01*
X121770Y340342D01*
X122842Y339270D01*
X123730Y338902D01*
Y341230D01*
D02*
G37*
G36*
X293770Y338598D02*
Y336270D01*
X296098D01*
X295730Y337158D01*
X294658Y338230D01*
X293770Y338598D01*
D02*
G37*
G36*
X291230D02*
X290342Y338230D01*
X289270Y337158D01*
X288902Y336270D01*
X291230D01*
Y338598D01*
D02*
G37*
G36*
X126270Y336098D02*
Y333770D01*
X128598D01*
X128230Y334658D01*
X127158Y335730D01*
X126270Y336098D01*
D02*
G37*
G36*
X123730D02*
X122842Y335730D01*
X121770Y334658D01*
X121402Y333770D01*
X123730D01*
Y336098D01*
D02*
G37*
G36*
X296098Y333730D02*
X293770D01*
Y331402D01*
X294658Y331770D01*
X295730Y332842D01*
X296098Y333730D01*
D02*
G37*
G36*
X291230D02*
X288902D01*
X289270Y332842D01*
X290342Y331770D01*
X291230Y331402D01*
Y333730D01*
D02*
G37*
G36*
X128598Y331230D02*
X126270D01*
Y328902D01*
X127158Y329270D01*
X128230Y330342D01*
X128598Y331230D01*
D02*
G37*
G36*
X123730D02*
X121402D01*
X121770Y330342D01*
X122842Y329270D01*
X123730Y328902D01*
Y331230D01*
D02*
G37*
G36*
X463770Y328598D02*
Y326270D01*
X466098D01*
X465730Y327158D01*
X464658Y328230D01*
X463770Y328598D01*
D02*
G37*
G36*
X461230D02*
X460342Y328230D01*
X459270Y327158D01*
X458902Y326270D01*
X461230D01*
Y328598D01*
D02*
G37*
G36*
X438770D02*
Y326270D01*
X441098D01*
X440730Y327158D01*
X439658Y328230D01*
X438770Y328598D01*
D02*
G37*
G36*
X436230D02*
X435342Y328230D01*
X434270Y327158D01*
X433902Y326270D01*
X436230D01*
Y328598D01*
D02*
G37*
G36*
X293770D02*
Y326270D01*
X296098D01*
X295730Y327158D01*
X294658Y328230D01*
X293770Y328598D01*
D02*
G37*
G36*
X291230D02*
X290342Y328230D01*
X289270Y327158D01*
X288902Y326270D01*
X291230D01*
Y328598D01*
D02*
G37*
G36*
X126270Y326098D02*
Y323770D01*
X128598D01*
X128230Y324658D01*
X127158Y325730D01*
X126270Y326098D01*
D02*
G37*
G36*
X123730D02*
X122842Y325730D01*
X121770Y324658D01*
X121402Y323770D01*
X123730D01*
Y326098D01*
D02*
G37*
G36*
X466098Y323730D02*
X463770D01*
Y321402D01*
X464658Y321770D01*
X465730Y322842D01*
X466098Y323730D01*
D02*
G37*
G36*
X461230D02*
X458902D01*
X459270Y322842D01*
X460342Y321770D01*
X461230Y321402D01*
Y323730D01*
D02*
G37*
G36*
X441098D02*
X438770D01*
Y321402D01*
X439658Y321770D01*
X440730Y322842D01*
X441098Y323730D01*
D02*
G37*
G36*
X436230D02*
X433902D01*
X434270Y322842D01*
X435342Y321770D01*
X436230Y321402D01*
Y323730D01*
D02*
G37*
G36*
X296098D02*
X293770D01*
Y321402D01*
X294658Y321770D01*
X295730Y322842D01*
X296098Y323730D01*
D02*
G37*
G36*
X291230D02*
X288902D01*
X289270Y322842D01*
X290342Y321770D01*
X291230Y321402D01*
Y323730D01*
D02*
G37*
G36*
X128598Y321230D02*
X126270D01*
Y318902D01*
X127158Y319270D01*
X128230Y320342D01*
X128598Y321230D01*
D02*
G37*
G36*
X123730D02*
X121402D01*
X121770Y320342D01*
X122842Y319270D01*
X123730Y318902D01*
Y321230D01*
D02*
G37*
G36*
X293770Y318598D02*
Y316270D01*
X296098D01*
X295730Y317158D01*
X294658Y318230D01*
X293770Y318598D01*
D02*
G37*
G36*
X291230D02*
X290342Y318230D01*
X289270Y317158D01*
X288902Y316270D01*
X291230D01*
Y318598D01*
D02*
G37*
G36*
X126270Y316098D02*
Y313770D01*
X128598D01*
X128230Y314658D01*
X127158Y315730D01*
X126270Y316098D01*
D02*
G37*
G36*
X123730D02*
X122842Y315730D01*
X121770Y314658D01*
X121402Y313770D01*
X123730D01*
Y316098D01*
D02*
G37*
G36*
X296098Y313730D02*
X293770D01*
Y311402D01*
X294658Y311770D01*
X295730Y312842D01*
X296098Y313730D01*
D02*
G37*
G36*
X291230D02*
X288902D01*
X289270Y312842D01*
X290342Y311770D01*
X291230Y311402D01*
Y313730D01*
D02*
G37*
G36*
X555150Y337601D02*
X529750D01*
X526103Y337120D01*
X522705Y335713D01*
X519786Y333474D01*
X517547Y330555D01*
X516140Y327157D01*
X515659Y323510D01*
X516140Y319863D01*
X517547Y316465D01*
X519786Y313547D01*
X522705Y311307D01*
X526103Y309900D01*
X529750Y309419D01*
X555150D01*
X558797Y309900D01*
X562195Y311307D01*
X565113Y313547D01*
X567353Y316465D01*
X568760Y319863D01*
X569240Y323510D01*
X568760Y327157D01*
X567353Y330555D01*
X565113Y333474D01*
X562195Y335713D01*
X558797Y337120D01*
X555150Y337601D01*
D02*
G37*
G36*
X128598Y311230D02*
X126270D01*
Y308902D01*
X127158Y309270D01*
X128230Y310342D01*
X128598Y311230D01*
D02*
G37*
G36*
X123730D02*
X121402D01*
X121770Y310342D01*
X122842Y309270D01*
X123730Y308902D01*
Y311230D01*
D02*
G37*
G36*
X323770Y303598D02*
Y301270D01*
X326098D01*
X325730Y302158D01*
X324658Y303230D01*
X323770Y303598D01*
D02*
G37*
G36*
X321230D02*
X320342Y303230D01*
X319270Y302158D01*
X318902Y301270D01*
X321230D01*
Y303598D01*
D02*
G37*
G36*
X161270D02*
Y301270D01*
X163598D01*
X163230Y302158D01*
X162158Y303230D01*
X161270Y303598D01*
D02*
G37*
G36*
X158730D02*
X157842Y303230D01*
X156770Y302158D01*
X156402Y301270D01*
X158730D01*
Y303598D01*
D02*
G37*
G36*
X148770D02*
Y301270D01*
X151098D01*
X150730Y302158D01*
X149658Y303230D01*
X148770Y303598D01*
D02*
G37*
G36*
X146230D02*
X145342Y303230D01*
X144270Y302158D01*
X143902Y301270D01*
X146230D01*
Y303598D01*
D02*
G37*
G36*
X136270D02*
Y301270D01*
X138598D01*
X138230Y302158D01*
X137158Y303230D01*
X136270Y303598D01*
D02*
G37*
G36*
X133730D02*
X132842Y303230D01*
X131770Y302158D01*
X131402Y301270D01*
X133730D01*
Y303598D01*
D02*
G37*
G36*
X326098Y298730D02*
X323770D01*
Y296402D01*
X324658Y296770D01*
X325730Y297842D01*
X326098Y298730D01*
D02*
G37*
G36*
X321230D02*
X318902D01*
X319270Y297842D01*
X320342Y296770D01*
X321230Y296402D01*
Y298730D01*
D02*
G37*
G36*
X163598D02*
X161270D01*
Y296402D01*
X162158Y296770D01*
X163230Y297842D01*
X163598Y298730D01*
D02*
G37*
G36*
X158730D02*
X156402D01*
X156770Y297842D01*
X157842Y296770D01*
X158730Y296402D01*
Y298730D01*
D02*
G37*
G36*
X151098D02*
X148770D01*
Y296402D01*
X149658Y296770D01*
X150730Y297842D01*
X151098Y298730D01*
D02*
G37*
G36*
X146230D02*
X143902D01*
X144270Y297842D01*
X145342Y296770D01*
X146230Y296402D01*
Y298730D01*
D02*
G37*
G36*
X138598D02*
X136270D01*
Y296402D01*
X137158Y296770D01*
X138230Y297842D01*
X138598Y298730D01*
D02*
G37*
G36*
X133730D02*
X131402D01*
X131770Y297842D01*
X132842Y296770D01*
X133730Y296402D01*
Y298730D01*
D02*
G37*
G36*
X553770Y291098D02*
Y288770D01*
X556098D01*
X555730Y289658D01*
X554658Y290730D01*
X553770Y291098D01*
D02*
G37*
G36*
X551230D02*
X550342Y290730D01*
X549270Y289658D01*
X548902Y288770D01*
X551230D01*
Y291098D01*
D02*
G37*
G36*
X538770D02*
Y288770D01*
X541098D01*
X540730Y289658D01*
X539658Y290730D01*
X538770Y291098D01*
D02*
G37*
G36*
X536230D02*
X535342Y290730D01*
X534270Y289658D01*
X533902Y288770D01*
X536230D01*
Y291098D01*
D02*
G37*
G36*
X556098Y286230D02*
X553770D01*
Y283902D01*
X554658Y284270D01*
X555730Y285342D01*
X556098Y286230D01*
D02*
G37*
G36*
X551230D02*
X548902D01*
X549270Y285342D01*
X550342Y284270D01*
X551230Y283902D01*
Y286230D01*
D02*
G37*
G36*
X541098D02*
X538770D01*
Y283902D01*
X539658Y284270D01*
X540730Y285342D01*
X541098Y286230D01*
D02*
G37*
G36*
X536230D02*
X533902D01*
X534270Y285342D01*
X535342Y284270D01*
X536230Y283902D01*
Y286230D01*
D02*
G37*
G36*
X241270Y273598D02*
Y271270D01*
X243598D01*
X243230Y272158D01*
X242158Y273230D01*
X241270Y273598D01*
D02*
G37*
G36*
X238730D02*
X237842Y273230D01*
X236770Y272158D01*
X236402Y271270D01*
X238730D01*
Y273598D01*
D02*
G37*
G36*
X228770D02*
Y271270D01*
X231098D01*
X230730Y272158D01*
X229658Y273230D01*
X228770Y273598D01*
D02*
G37*
G36*
X226230D02*
X225342Y273230D01*
X224270Y272158D01*
X223902Y271270D01*
X226230D01*
Y273598D01*
D02*
G37*
G36*
X243598Y268730D02*
X241270D01*
Y266402D01*
X242158Y266770D01*
X243230Y267842D01*
X243598Y268730D01*
D02*
G37*
G36*
X238730D02*
X236402D01*
X236770Y267842D01*
X237842Y266770D01*
X238730Y266402D01*
Y268730D01*
D02*
G37*
G36*
X231098D02*
X228770D01*
Y266402D01*
X229658Y266770D01*
X230730Y267842D01*
X231098Y268730D01*
D02*
G37*
G36*
X226230D02*
X223902D01*
X224270Y267842D01*
X225342Y266770D01*
X226230Y266402D01*
Y268730D01*
D02*
G37*
G36*
X288770Y268598D02*
Y266270D01*
X291098D01*
X290730Y267158D01*
X289658Y268230D01*
X288770Y268598D01*
D02*
G37*
G36*
X286230D02*
X285342Y268230D01*
X284270Y267158D01*
X283902Y266270D01*
X286230D01*
Y268598D01*
D02*
G37*
G36*
X613770Y266098D02*
Y263770D01*
X616098D01*
X615730Y264658D01*
X614658Y265730D01*
X613770Y266098D01*
D02*
G37*
G36*
X611230D02*
X610342Y265730D01*
X609270Y264658D01*
X608902Y263770D01*
X611230D01*
Y266098D01*
D02*
G37*
G36*
X291098Y263730D02*
X288770D01*
Y261402D01*
X289658Y261770D01*
X290730Y262842D01*
X291098Y263730D01*
D02*
G37*
G36*
X286230D02*
X283902D01*
X284270Y262842D01*
X285342Y261770D01*
X286230Y261402D01*
Y263730D01*
D02*
G37*
G36*
X616098Y261230D02*
X613770D01*
Y258902D01*
X614658Y259270D01*
X615730Y260342D01*
X616098Y261230D01*
D02*
G37*
G36*
X611230D02*
X608902D01*
X609270Y260342D01*
X610342Y259270D01*
X611230Y258902D01*
Y261230D01*
D02*
G37*
G36*
X241270Y261098D02*
Y258770D01*
X243598D01*
X243230Y259658D01*
X242158Y260730D01*
X241270Y261098D01*
D02*
G37*
G36*
X238730D02*
X237842Y260730D01*
X236770Y259658D01*
X236402Y258770D01*
X238730D01*
Y261098D01*
D02*
G37*
G36*
X228770D02*
Y258770D01*
X231098D01*
X230730Y259658D01*
X229658Y260730D01*
X228770Y261098D01*
D02*
G37*
G36*
X226230D02*
X225342Y260730D01*
X224270Y259658D01*
X223902Y258770D01*
X226230D01*
Y261098D01*
D02*
G37*
G36*
X243598Y256230D02*
X241270D01*
Y253902D01*
X242158Y254270D01*
X243230Y255342D01*
X243598Y256230D01*
D02*
G37*
G36*
X238730D02*
X236402D01*
X236770Y255342D01*
X237842Y254270D01*
X238730Y253902D01*
Y256230D01*
D02*
G37*
G36*
X231098D02*
X228770D01*
Y253902D01*
X229658Y254270D01*
X230730Y255342D01*
X231098Y256230D01*
D02*
G37*
G36*
X226230D02*
X223902D01*
X224270Y255342D01*
X225342Y254270D01*
X226230Y253902D01*
Y256230D01*
D02*
G37*
G36*
X501270Y253598D02*
Y251270D01*
X503598D01*
X503230Y252158D01*
X502158Y253230D01*
X501270Y253598D01*
D02*
G37*
G36*
X498730D02*
X497842Y253230D01*
X496770Y252158D01*
X496402Y251270D01*
X498730D01*
Y253598D01*
D02*
G37*
G36*
X423770Y251098D02*
Y248770D01*
X426098D01*
X425730Y249658D01*
X424658Y250730D01*
X423770Y251098D01*
D02*
G37*
G36*
X421230D02*
X420342Y250730D01*
X419270Y249658D01*
X418902Y248770D01*
X421230D01*
Y251098D01*
D02*
G37*
G36*
X503598Y248730D02*
X501270D01*
Y246402D01*
X502158Y246770D01*
X503230Y247842D01*
X503598Y248730D01*
D02*
G37*
G36*
X498730D02*
X496402D01*
X496770Y247842D01*
X497842Y246770D01*
X498730Y246402D01*
Y248730D01*
D02*
G37*
G36*
X313770Y248598D02*
Y246270D01*
X316098D01*
X315730Y247158D01*
X314658Y248230D01*
X313770Y248598D01*
D02*
G37*
G36*
X311230D02*
X310342Y248230D01*
X309270Y247158D01*
X308902Y246270D01*
X311230D01*
Y248598D01*
D02*
G37*
G36*
X426098Y246230D02*
X423770D01*
Y243902D01*
X424658Y244270D01*
X425730Y245342D01*
X426098Y246230D01*
D02*
G37*
G36*
X421230D02*
X418902D01*
X419270Y245342D01*
X420342Y244270D01*
X421230Y243902D01*
Y246230D01*
D02*
G37*
G36*
X316098Y243730D02*
X313770D01*
Y241402D01*
X314658Y241770D01*
X315730Y242842D01*
X316098Y243730D01*
D02*
G37*
G36*
X311230D02*
X308902D01*
X309270Y242842D01*
X310342Y241770D01*
X311230Y241402D01*
Y243730D01*
D02*
G37*
G36*
X528770Y241098D02*
Y238770D01*
X531098D01*
X530730Y239658D01*
X529658Y240730D01*
X528770Y241098D01*
D02*
G37*
G36*
X526230D02*
X525342Y240730D01*
X524270Y239658D01*
X523902Y238770D01*
X526230D01*
Y241098D01*
D02*
G37*
G36*
X531098Y236230D02*
X528770D01*
Y233902D01*
X529658Y234270D01*
X530730Y235342D01*
X531098Y236230D01*
D02*
G37*
G36*
X526230D02*
X523902D01*
X524270Y235342D01*
X525342Y234270D01*
X526230Y233902D01*
Y236230D01*
D02*
G37*
G36*
X481270Y233598D02*
Y231270D01*
X483598D01*
X483230Y232158D01*
X482158Y233230D01*
X481270Y233598D01*
D02*
G37*
G36*
X478730D02*
X477842Y233230D01*
X476770Y232158D01*
X476402Y231270D01*
X478730D01*
Y233598D01*
D02*
G37*
G36*
X461270D02*
Y231270D01*
X463598D01*
X463230Y232158D01*
X462158Y233230D01*
X461270Y233598D01*
D02*
G37*
G36*
X458730D02*
X457842Y233230D01*
X456770Y232158D01*
X456402Y231270D01*
X458730D01*
Y233598D01*
D02*
G37*
G36*
X441270D02*
Y231270D01*
X443598D01*
X443230Y232158D01*
X442158Y233230D01*
X441270Y233598D01*
D02*
G37*
G36*
X438730D02*
X437842Y233230D01*
X436770Y232158D01*
X436402Y231270D01*
X438730D01*
Y233598D01*
D02*
G37*
G36*
X483598Y228730D02*
X481270D01*
Y226402D01*
X482158Y226770D01*
X483230Y227842D01*
X483598Y228730D01*
D02*
G37*
G36*
X478730D02*
X476402D01*
X476770Y227842D01*
X477842Y226770D01*
X478730Y226402D01*
Y228730D01*
D02*
G37*
G36*
X463598D02*
X461270D01*
Y226402D01*
X462158Y226770D01*
X463230Y227842D01*
X463598Y228730D01*
D02*
G37*
G36*
X458730D02*
X456402D01*
X456770Y227842D01*
X457842Y226770D01*
X458730Y226402D01*
Y228730D01*
D02*
G37*
G36*
X443598D02*
X441270D01*
Y226402D01*
X442158Y226770D01*
X443230Y227842D01*
X443598Y228730D01*
D02*
G37*
G36*
X438730D02*
X436402D01*
X436770Y227842D01*
X437842Y226770D01*
X438730Y226402D01*
Y228730D01*
D02*
G37*
G36*
X378770Y226098D02*
Y223770D01*
X381098D01*
X380730Y224658D01*
X379658Y225730D01*
X378770Y226098D01*
D02*
G37*
G36*
X376230D02*
X375342Y225730D01*
X374270Y224658D01*
X373902Y223770D01*
X376230D01*
Y226098D01*
D02*
G37*
G36*
X381098Y221230D02*
X378770D01*
Y218902D01*
X379658Y219270D01*
X380730Y220342D01*
X381098Y221230D01*
D02*
G37*
G36*
X376230D02*
X373902D01*
X374270Y220342D01*
X375342Y219270D01*
X376230Y218902D01*
Y221230D01*
D02*
G37*
G36*
X296010Y245080D02*
X293990D01*
X292122Y244307D01*
X290693Y242878D01*
X289920Y241010D01*
Y238990D01*
X290693Y237122D01*
X292122Y235693D01*
X293990Y234920D01*
X296010D01*
X296298Y235039D01*
X303560Y227777D01*
Y219262D01*
X302387Y218776D01*
X297461Y223702D01*
X297580Y223990D01*
Y226010D01*
X296807Y227878D01*
X295378Y229307D01*
X293510Y230080D01*
X291490D01*
X289622Y229307D01*
X288193Y227878D01*
X287420Y226010D01*
Y223990D01*
X288193Y222122D01*
X289622Y220693D01*
X291490Y219920D01*
X293510D01*
X293798Y220039D01*
X299654Y214184D01*
Y209647D01*
X299750Y209163D01*
Y190191D01*
X299947Y189200D01*
X300509Y188360D01*
X346062Y142807D01*
Y139380D01*
X346003Y139293D01*
X345806Y138302D01*
Y111926D01*
X345518Y111807D01*
X344089Y110378D01*
X343316Y108511D01*
Y106490D01*
X344089Y104622D01*
X345518Y103193D01*
X347385Y102420D01*
X349407D01*
X351274Y103193D01*
X352703Y104622D01*
X353062Y105491D01*
X354332Y105238D01*
Y102282D01*
X345669Y93619D01*
X345107Y92779D01*
X344910Y91788D01*
Y81926D01*
X344622Y81807D01*
X343193Y80378D01*
X342420Y78510D01*
Y76490D01*
X343193Y74622D01*
X344622Y73193D01*
X346489Y72420D01*
X348511D01*
X350378Y73193D01*
X351807Y74622D01*
X352580Y76490D01*
Y78440D01*
X352775Y78614D01*
X353707Y79109D01*
X354622Y78193D01*
X356489Y77420D01*
X358511D01*
X360378Y78193D01*
X361807Y79622D01*
X362580Y81489D01*
Y83511D01*
X361807Y85378D01*
X360378Y86807D01*
X360090Y86926D01*
Y95327D01*
X362563Y97800D01*
X363125Y98640D01*
X363322Y99632D01*
Y140034D01*
X364495Y140520D01*
X401763Y103253D01*
Y58947D01*
X400693Y57878D01*
X399920Y56010D01*
Y53990D01*
X400693Y52122D01*
X402122Y50693D01*
X403989Y49920D01*
X406011D01*
X407878Y50693D01*
X409307Y52122D01*
X410080Y53990D01*
Y56010D01*
X409307Y57878D01*
X408237Y58947D01*
Y104593D01*
X407991Y105832D01*
X407289Y106883D01*
X323977Y190194D01*
Y217813D01*
X325047Y218882D01*
X325820Y220749D01*
Y222770D01*
X325047Y224638D01*
X323618Y226066D01*
X321751Y226840D01*
X319730D01*
X317862Y226066D01*
X316434Y224638D01*
X315660Y222770D01*
Y220749D01*
X316434Y218882D01*
X317503Y217813D01*
Y213977D01*
X316233Y213451D01*
X315378Y214307D01*
X313510Y215080D01*
X311490D01*
X310010Y214467D01*
X308740Y215083D01*
Y228850D01*
X308543Y229841D01*
X307981Y230681D01*
X299961Y238702D01*
X300080Y238990D01*
Y241010D01*
X299307Y242878D01*
X297878Y244307D01*
X296010Y245080D01*
D02*
G37*
G36*
X251270Y221098D02*
Y218770D01*
X253598D01*
X253230Y219658D01*
X252158Y220730D01*
X251270Y221098D01*
D02*
G37*
G36*
X248730D02*
X247842Y220730D01*
X246770Y219658D01*
X246402Y218770D01*
X248730D01*
Y221098D01*
D02*
G37*
G36*
X241270D02*
Y218770D01*
X243598D01*
X243230Y219658D01*
X242158Y220730D01*
X241270Y221098D01*
D02*
G37*
G36*
X238730D02*
X237842Y220730D01*
X236770Y219658D01*
X236402Y218770D01*
X238730D01*
Y221098D01*
D02*
G37*
G36*
X253598Y216230D02*
X251270D01*
Y213902D01*
X252158Y214270D01*
X253230Y215342D01*
X253598Y216230D01*
D02*
G37*
G36*
X248730D02*
X246402D01*
X246770Y215342D01*
X247842Y214270D01*
X248730Y213902D01*
Y216230D01*
D02*
G37*
G36*
X243598D02*
X241270D01*
Y213902D01*
X242158Y214270D01*
X243230Y215342D01*
X243598Y216230D01*
D02*
G37*
G36*
X238730D02*
X236402D01*
X236770Y215342D01*
X237842Y214270D01*
X238730Y213902D01*
Y216230D01*
D02*
G37*
G36*
X481270Y213598D02*
Y211270D01*
X483598D01*
X483230Y212158D01*
X482158Y213230D01*
X481270Y213598D01*
D02*
G37*
G36*
X478730D02*
X477842Y213230D01*
X476770Y212158D01*
X476402Y211270D01*
X478730D01*
Y213598D01*
D02*
G37*
G36*
X461270D02*
Y211270D01*
X463598D01*
X463230Y212158D01*
X462158Y213230D01*
X461270Y213598D01*
D02*
G37*
G36*
X458730D02*
X457842Y213230D01*
X456770Y212158D01*
X456402Y211270D01*
X458730D01*
Y213598D01*
D02*
G37*
G36*
X441270D02*
Y211270D01*
X443598D01*
X443230Y212158D01*
X442158Y213230D01*
X441270Y213598D01*
D02*
G37*
G36*
X438730D02*
X437842Y213230D01*
X436770Y212158D01*
X436402Y211270D01*
X438730D01*
Y213598D01*
D02*
G37*
G36*
X483598Y208730D02*
X481270D01*
Y206402D01*
X482158Y206770D01*
X483230Y207842D01*
X483598Y208730D01*
D02*
G37*
G36*
X478730D02*
X476402D01*
X476770Y207842D01*
X477842Y206770D01*
X478730Y206402D01*
Y208730D01*
D02*
G37*
G36*
X463598D02*
X461270D01*
Y206402D01*
X462158Y206770D01*
X463230Y207842D01*
X463598Y208730D01*
D02*
G37*
G36*
X458730D02*
X456402D01*
X456770Y207842D01*
X457842Y206770D01*
X458730Y206402D01*
Y208730D01*
D02*
G37*
G36*
X443598D02*
X441270D01*
Y206402D01*
X442158Y206770D01*
X443230Y207842D01*
X443598Y208730D01*
D02*
G37*
G36*
X438730D02*
X436402D01*
X436770Y207842D01*
X437842Y206770D01*
X438730Y206402D01*
Y208730D01*
D02*
G37*
G36*
X588770Y206098D02*
Y203770D01*
X591098D01*
X590730Y204658D01*
X589658Y205730D01*
X588770Y206098D01*
D02*
G37*
G36*
X586230D02*
X585342Y205730D01*
X584270Y204658D01*
X583902Y203770D01*
X586230D01*
Y206098D01*
D02*
G37*
G36*
X338770Y203598D02*
Y201270D01*
X341098D01*
X340730Y202158D01*
X339658Y203230D01*
X338770Y203598D01*
D02*
G37*
G36*
X336230D02*
X335342Y203230D01*
X334270Y202158D01*
X333902Y201270D01*
X336230D01*
Y203598D01*
D02*
G37*
G36*
X591098Y201230D02*
X588770D01*
Y198902D01*
X589658Y199270D01*
X590730Y200342D01*
X591098Y201230D01*
D02*
G37*
G36*
X586230D02*
X583902D01*
X584270Y200342D01*
X585342Y199270D01*
X586230Y198902D01*
Y201230D01*
D02*
G37*
G36*
X481011Y355080D02*
X478989D01*
X477122Y354307D01*
X475693Y352878D01*
X474920Y351011D01*
Y348989D01*
X475693Y347122D01*
X476156Y346660D01*
Y337335D01*
X476156Y337335D01*
X476449Y335864D01*
X477282Y334617D01*
X512779Y299120D01*
Y278377D01*
X512779Y278377D01*
X513071Y276906D01*
X513905Y275659D01*
X524920Y264644D01*
Y263990D01*
X525693Y262122D01*
X527122Y260693D01*
X528989Y259920D01*
X529644D01*
X570658Y218906D01*
Y205291D01*
X569920Y203510D01*
Y201490D01*
X570693Y199622D01*
X572122Y198193D01*
X573989Y197420D01*
X576011D01*
X577878Y198193D01*
X579307Y199622D01*
X580080Y201490D01*
Y203510D01*
X579307Y205378D01*
X578345Y206339D01*
Y220498D01*
X578345Y220499D01*
X578053Y221970D01*
X577220Y223217D01*
X535080Y265356D01*
Y266010D01*
X534307Y267878D01*
X532878Y269307D01*
X531011Y270080D01*
X530356D01*
X520466Y279970D01*
Y300712D01*
X520467Y300712D01*
X520174Y302183D01*
X519341Y303430D01*
X519341Y303430D01*
X483844Y338927D01*
Y346660D01*
X484307Y347122D01*
X485080Y348989D01*
Y351011D01*
X484307Y352878D01*
X482878Y354307D01*
X481011Y355080D01*
D02*
G37*
G36*
X341098Y198730D02*
X338770D01*
Y196402D01*
X339658Y196770D01*
X340730Y197842D01*
X341098Y198730D01*
D02*
G37*
G36*
X336230D02*
X333902D01*
X334270Y197842D01*
X335342Y196770D01*
X336230Y196402D01*
Y198730D01*
D02*
G37*
G36*
X218770Y198598D02*
Y196270D01*
X221098D01*
X220730Y197158D01*
X219658Y198230D01*
X218770Y198598D01*
D02*
G37*
G36*
X216230D02*
X215342Y198230D01*
X214270Y197158D01*
X213902Y196270D01*
X216230D01*
Y198598D01*
D02*
G37*
G36*
X196270Y196098D02*
Y193770D01*
X198598D01*
X198230Y194658D01*
X197158Y195730D01*
X196270Y196098D01*
D02*
G37*
G36*
X193730D02*
X192842Y195730D01*
X191770Y194658D01*
X191402Y193770D01*
X193730D01*
Y196098D01*
D02*
G37*
G36*
X221098Y193730D02*
X218770D01*
Y191402D01*
X219658Y191770D01*
X220730Y192842D01*
X221098Y193730D01*
D02*
G37*
G36*
X216230D02*
X213902D01*
X214270Y192842D01*
X215342Y191770D01*
X216230Y191402D01*
Y193730D01*
D02*
G37*
G36*
X481270Y193598D02*
Y191270D01*
X483598D01*
X483230Y192158D01*
X482158Y193230D01*
X481270Y193598D01*
D02*
G37*
G36*
X478730D02*
X477842Y193230D01*
X476770Y192158D01*
X476402Y191270D01*
X478730D01*
Y193598D01*
D02*
G37*
G36*
X461270D02*
Y191270D01*
X463598D01*
X463230Y192158D01*
X462158Y193230D01*
X461270Y193598D01*
D02*
G37*
G36*
X458730D02*
X457842Y193230D01*
X456770Y192158D01*
X456402Y191270D01*
X458730D01*
Y193598D01*
D02*
G37*
G36*
X441270D02*
Y191270D01*
X443598D01*
X443230Y192158D01*
X442158Y193230D01*
X441270Y193598D01*
D02*
G37*
G36*
X438730D02*
X437842Y193230D01*
X436770Y192158D01*
X436402Y191270D01*
X438730D01*
Y193598D01*
D02*
G37*
G36*
X198598Y191230D02*
X196270D01*
Y188902D01*
X197158Y189270D01*
X198230Y190342D01*
X198598Y191230D01*
D02*
G37*
G36*
X193730D02*
X191402D01*
X191770Y190342D01*
X192842Y189270D01*
X193730Y188902D01*
Y191230D01*
D02*
G37*
G36*
X483598Y188730D02*
X481270D01*
Y186402D01*
X482158Y186770D01*
X483230Y187842D01*
X483598Y188730D01*
D02*
G37*
G36*
X478730D02*
X476402D01*
X476770Y187842D01*
X477842Y186770D01*
X478730Y186402D01*
Y188730D01*
D02*
G37*
G36*
X463598D02*
X461270D01*
Y186402D01*
X462158Y186770D01*
X463230Y187842D01*
X463598Y188730D01*
D02*
G37*
G36*
X458730D02*
X456402D01*
X456770Y187842D01*
X457842Y186770D01*
X458730Y186402D01*
Y188730D01*
D02*
G37*
G36*
X443598D02*
X441270D01*
Y186402D01*
X442158Y186770D01*
X443230Y187842D01*
X443598Y188730D01*
D02*
G37*
G36*
X438730D02*
X436402D01*
X436770Y187842D01*
X437842Y186770D01*
X438730Y186402D01*
Y188730D01*
D02*
G37*
G36*
X378770Y188598D02*
Y186270D01*
X381098D01*
X380730Y187158D01*
X379658Y188230D01*
X378770Y188598D01*
D02*
G37*
G36*
X376230D02*
X375342Y188230D01*
X374270Y187158D01*
X373902Y186270D01*
X376230D01*
Y188598D01*
D02*
G37*
G36*
X218770Y186098D02*
Y183770D01*
X221098D01*
X220730Y184658D01*
X219658Y185730D01*
X218770Y186098D01*
D02*
G37*
G36*
X216230D02*
X215342Y185730D01*
X214270Y184658D01*
X213902Y183770D01*
X216230D01*
Y186098D01*
D02*
G37*
G36*
X196270D02*
Y183770D01*
X198598D01*
X198230Y184658D01*
X197158Y185730D01*
X196270Y186098D01*
D02*
G37*
G36*
X193730D02*
X192842Y185730D01*
X191770Y184658D01*
X191402Y183770D01*
X193730D01*
Y186098D01*
D02*
G37*
G36*
X381098Y183730D02*
X378770D01*
Y181402D01*
X379658Y181770D01*
X380730Y182842D01*
X381098Y183730D01*
D02*
G37*
G36*
X376230D02*
X373902D01*
X374270Y182842D01*
X375342Y181770D01*
X376230Y181402D01*
Y183730D01*
D02*
G37*
G36*
X221098Y181230D02*
X218770D01*
Y178902D01*
X219658Y179270D01*
X220730Y180342D01*
X221098Y181230D01*
D02*
G37*
G36*
X216230D02*
X213902D01*
X214270Y180342D01*
X215342Y179270D01*
X216230Y178902D01*
Y181230D01*
D02*
G37*
G36*
X198598D02*
X196270D01*
Y178902D01*
X197158Y179270D01*
X198230Y180342D01*
X198598Y181230D01*
D02*
G37*
G36*
X193730D02*
X191402D01*
X191770Y180342D01*
X192842Y179270D01*
X193730Y178902D01*
Y181230D01*
D02*
G37*
G36*
X543770Y181098D02*
Y178770D01*
X546098D01*
X545730Y179658D01*
X544658Y180730D01*
X543770Y181098D01*
D02*
G37*
G36*
X541230D02*
X540342Y180730D01*
X539270Y179658D01*
X538902Y178770D01*
X541230D01*
Y181098D01*
D02*
G37*
G36*
X546098Y176230D02*
X543770D01*
Y173902D01*
X544658Y174270D01*
X545730Y175342D01*
X546098Y176230D01*
D02*
G37*
G36*
X541230D02*
X538902D01*
X539270Y175342D01*
X540342Y174270D01*
X541230Y173902D01*
Y176230D01*
D02*
G37*
G36*
X196270Y176098D02*
Y173770D01*
X198598D01*
X198230Y174658D01*
X197158Y175730D01*
X196270Y176098D01*
D02*
G37*
G36*
X193730D02*
X192842Y175730D01*
X191770Y174658D01*
X191402Y173770D01*
X193730D01*
Y176098D01*
D02*
G37*
G36*
X621270Y173598D02*
Y171270D01*
X623598D01*
X623230Y172158D01*
X622158Y173230D01*
X621270Y173598D01*
D02*
G37*
G36*
X618730D02*
X617842Y173230D01*
X616770Y172158D01*
X616402Y171270D01*
X618730D01*
Y173598D01*
D02*
G37*
G36*
X503770D02*
Y171270D01*
X506098D01*
X505730Y172158D01*
X504658Y173230D01*
X503770Y173598D01*
D02*
G37*
G36*
X501230D02*
X500342Y173230D01*
X499270Y172158D01*
X498902Y171270D01*
X501230D01*
Y173598D01*
D02*
G37*
G36*
X421270D02*
Y171270D01*
X423598D01*
X423230Y172158D01*
X422158Y173230D01*
X421270Y173598D01*
D02*
G37*
G36*
X418730D02*
X417842Y173230D01*
X416770Y172158D01*
X416402Y171270D01*
X418730D01*
Y173598D01*
D02*
G37*
G36*
X198598Y171230D02*
X196270D01*
Y168902D01*
X197158Y169270D01*
X198230Y170342D01*
X198598Y171230D01*
D02*
G37*
G36*
X193730D02*
X191402D01*
X191770Y170342D01*
X192842Y169270D01*
X193730Y168902D01*
Y171230D01*
D02*
G37*
G36*
X623598Y168730D02*
X621270D01*
Y166402D01*
X622158Y166770D01*
X623230Y167842D01*
X623598Y168730D01*
D02*
G37*
G36*
X618730D02*
X616402D01*
X616770Y167842D01*
X617842Y166770D01*
X618730Y166402D01*
Y168730D01*
D02*
G37*
G36*
X506098D02*
X503770D01*
Y166402D01*
X504658Y166770D01*
X505730Y167842D01*
X506098Y168730D01*
D02*
G37*
G36*
X501230D02*
X498902D01*
X499270Y167842D01*
X500342Y166770D01*
X501230Y166402D01*
Y168730D01*
D02*
G37*
G36*
X423598D02*
X421270D01*
Y166402D01*
X422158Y166770D01*
X423230Y167842D01*
X423598Y168730D01*
D02*
G37*
G36*
X418730D02*
X416402D01*
X416770Y167842D01*
X417842Y166770D01*
X418730Y166402D01*
Y168730D01*
D02*
G37*
G36*
X196270Y166098D02*
Y163770D01*
X198598D01*
X198230Y164658D01*
X197158Y165730D01*
X196270Y166098D01*
D02*
G37*
G36*
X193730D02*
X192842Y165730D01*
X191770Y164658D01*
X191402Y163770D01*
X193730D01*
Y166098D01*
D02*
G37*
G36*
X591270Y163598D02*
Y161270D01*
X593598D01*
X593230Y162158D01*
X592158Y163230D01*
X591270Y163598D01*
D02*
G37*
G36*
X588730D02*
X587842Y163230D01*
X586770Y162158D01*
X586402Y161270D01*
X588730D01*
Y163598D01*
D02*
G37*
G36*
X198598Y161230D02*
X196270D01*
Y158902D01*
X197158Y159270D01*
X198230Y160342D01*
X198598Y161230D01*
D02*
G37*
G36*
X193730D02*
X191402D01*
X191770Y160342D01*
X192842Y159270D01*
X193730Y158902D01*
Y161230D01*
D02*
G37*
G36*
X593598Y158730D02*
X591270D01*
Y156402D01*
X592158Y156770D01*
X593230Y157842D01*
X593598Y158730D01*
D02*
G37*
G36*
X588730D02*
X586402D01*
X586770Y157842D01*
X587842Y156770D01*
X588730Y156402D01*
Y158730D01*
D02*
G37*
G36*
X543770Y158598D02*
Y156270D01*
X546098D01*
X545730Y157158D01*
X544658Y158230D01*
X543770Y158598D01*
D02*
G37*
G36*
X541230D02*
X540342Y158230D01*
X539270Y157158D01*
X538902Y156270D01*
X541230D01*
Y158598D01*
D02*
G37*
G36*
X251270D02*
Y156270D01*
X253598D01*
X253230Y157158D01*
X252158Y158230D01*
X251270Y158598D01*
D02*
G37*
G36*
X248730D02*
X247842Y158230D01*
X246770Y157158D01*
X246402Y156270D01*
X248730D01*
Y158598D01*
D02*
G37*
G36*
X218770D02*
Y156270D01*
X221098D01*
X220730Y157158D01*
X219658Y158230D01*
X218770Y158598D01*
D02*
G37*
G36*
X216230D02*
X215342Y158230D01*
X214270Y157158D01*
X213902Y156270D01*
X216230D01*
Y158598D01*
D02*
G37*
G36*
X196270Y156098D02*
Y153770D01*
X198598D01*
X198230Y154658D01*
X197158Y155730D01*
X196270Y156098D01*
D02*
G37*
G36*
X193730D02*
X192842Y155730D01*
X191770Y154658D01*
X191402Y153770D01*
X193730D01*
Y156098D01*
D02*
G37*
G36*
X546098Y153730D02*
X543770D01*
Y151402D01*
X544658Y151770D01*
X545730Y152842D01*
X546098Y153730D01*
D02*
G37*
G36*
X541230D02*
X538902D01*
X539270Y152842D01*
X540342Y151770D01*
X541230Y151402D01*
Y153730D01*
D02*
G37*
G36*
X253598D02*
X251270D01*
Y151402D01*
X252158Y151770D01*
X253230Y152842D01*
X253598Y153730D01*
D02*
G37*
G36*
X248730D02*
X246402D01*
X246770Y152842D01*
X247842Y151770D01*
X248730Y151402D01*
Y153730D01*
D02*
G37*
G36*
X221098D02*
X218770D01*
Y151402D01*
X219658Y151770D01*
X220730Y152842D01*
X221098Y153730D01*
D02*
G37*
G36*
X216230D02*
X213902D01*
X214270Y152842D01*
X215342Y151770D01*
X216230Y151402D01*
Y153730D01*
D02*
G37*
G36*
X621270Y153598D02*
Y151270D01*
X623598D01*
X623230Y152158D01*
X622158Y153230D01*
X621270Y153598D01*
D02*
G37*
G36*
X618730D02*
X617842Y153230D01*
X616770Y152158D01*
X616402Y151270D01*
X618730D01*
Y153598D01*
D02*
G37*
G36*
X198598Y151230D02*
X196270D01*
Y148902D01*
X197158Y149270D01*
X198230Y150342D01*
X198598Y151230D01*
D02*
G37*
G36*
X193730D02*
X191402D01*
X191770Y150342D01*
X192842Y149270D01*
X193730Y148902D01*
Y151230D01*
D02*
G37*
G36*
X461270Y151098D02*
Y148770D01*
X463598D01*
X463230Y149658D01*
X462158Y150730D01*
X461270Y151098D01*
D02*
G37*
G36*
X458730D02*
X457842Y150730D01*
X456770Y149658D01*
X456402Y148770D01*
X458730D01*
Y151098D01*
D02*
G37*
G36*
X623598Y148730D02*
X621270D01*
Y146402D01*
X622158Y146770D01*
X623230Y147842D01*
X623598Y148730D01*
D02*
G37*
G36*
X618730D02*
X616402D01*
X616770Y147842D01*
X617842Y146770D01*
X618730Y146402D01*
Y148730D01*
D02*
G37*
G36*
X383770Y148598D02*
Y146270D01*
X386098D01*
X385730Y147158D01*
X384658Y148230D01*
X383770Y148598D01*
D02*
G37*
G36*
X381230D02*
X380342Y148230D01*
X379270Y147158D01*
X378902Y146270D01*
X381230D01*
Y148598D01*
D02*
G37*
G36*
X463598Y146230D02*
X461270D01*
Y143902D01*
X462158Y144270D01*
X463230Y145342D01*
X463598Y146230D01*
D02*
G37*
G36*
X458730D02*
X456402D01*
X456770Y145342D01*
X457842Y144270D01*
X458730Y143902D01*
Y146230D01*
D02*
G37*
G36*
X196270Y146098D02*
Y143770D01*
X198598D01*
X198230Y144658D01*
X197158Y145730D01*
X196270Y146098D01*
D02*
G37*
G36*
X193730D02*
X192842Y145730D01*
X191770Y144658D01*
X191402Y143770D01*
X193730D01*
Y146098D01*
D02*
G37*
G36*
X386098Y143730D02*
X383770D01*
Y141402D01*
X384658Y141770D01*
X385730Y142842D01*
X386098Y143730D01*
D02*
G37*
G36*
X381230D02*
X378902D01*
X379270Y142842D01*
X380342Y141770D01*
X381230Y141402D01*
Y143730D01*
D02*
G37*
G36*
X198598Y141230D02*
X196270D01*
Y138902D01*
X197158Y139270D01*
X198230Y140342D01*
X198598Y141230D01*
D02*
G37*
G36*
X193730D02*
X191402D01*
X191770Y140342D01*
X192842Y139270D01*
X193730Y138902D01*
Y141230D01*
D02*
G37*
G36*
X416270Y141098D02*
Y138770D01*
X418598D01*
X418230Y139658D01*
X417158Y140730D01*
X416270Y141098D01*
D02*
G37*
G36*
X413730D02*
X412842Y140730D01*
X411770Y139658D01*
X411402Y138770D01*
X413730D01*
Y141098D01*
D02*
G37*
G36*
X537533Y137472D02*
Y135144D01*
X539860D01*
X539492Y136032D01*
X538421Y137104D01*
X537533Y137472D01*
D02*
G37*
G36*
X534992D02*
X534104Y137104D01*
X533033Y136032D01*
X532665Y135144D01*
X534992D01*
Y137472D01*
D02*
G37*
G36*
X418598Y136230D02*
X416270D01*
Y133902D01*
X417158Y134270D01*
X418230Y135342D01*
X418598Y136230D01*
D02*
G37*
G36*
X413730D02*
X411402D01*
X411770Y135342D01*
X412842Y134270D01*
X413730Y133902D01*
Y136230D01*
D02*
G37*
G36*
X621270Y133598D02*
Y131270D01*
X623598D01*
X623230Y132158D01*
X622158Y133230D01*
X621270Y133598D01*
D02*
G37*
G36*
X618730D02*
X617842Y133230D01*
X616770Y132158D01*
X616402Y131270D01*
X618730D01*
Y133598D01*
D02*
G37*
G36*
X330009Y132940D02*
Y130612D01*
X332337D01*
X331969Y131501D01*
X330897Y132572D01*
X330009Y132940D01*
D02*
G37*
G36*
X327469D02*
X326581Y132572D01*
X325509Y131501D01*
X325141Y130612D01*
X327469D01*
Y132940D01*
D02*
G37*
G36*
X539860Y132604D02*
X537533D01*
Y130276D01*
X538421Y130644D01*
X539492Y131716D01*
X539860Y132604D01*
D02*
G37*
G36*
X534992D02*
X532665D01*
X533033Y131716D01*
X534104Y130644D01*
X534992Y130276D01*
Y132604D01*
D02*
G37*
G36*
X623598Y128730D02*
X621270D01*
Y126402D01*
X622158Y126770D01*
X623230Y127842D01*
X623598Y128730D01*
D02*
G37*
G36*
X618730D02*
X616402D01*
X616770Y127842D01*
X617842Y126770D01*
X618730Y126402D01*
Y128730D01*
D02*
G37*
G36*
X332337Y128073D02*
X330009D01*
Y125745D01*
X330897Y126113D01*
X331969Y127184D01*
X332337Y128073D01*
D02*
G37*
G36*
X327469D02*
X325141D01*
X325509Y127184D01*
X326581Y126113D01*
X327469Y125745D01*
Y128073D01*
D02*
G37*
G36*
X621270Y113598D02*
Y111270D01*
X623598D01*
X623230Y112158D01*
X622158Y113230D01*
X621270Y113598D01*
D02*
G37*
G36*
X618730D02*
X617842Y113230D01*
X616770Y112158D01*
X616402Y111270D01*
X618730D01*
Y113598D01*
D02*
G37*
G36*
X532379Y110022D02*
Y107695D01*
X534707D01*
X534339Y108583D01*
X533267Y109654D01*
X532379Y110022D01*
D02*
G37*
G36*
X529839D02*
X528951Y109654D01*
X527879Y108583D01*
X527511Y107695D01*
X529839D01*
Y110022D01*
D02*
G37*
G36*
X623598Y108730D02*
X621270D01*
Y106402D01*
X622158Y106770D01*
X623230Y107842D01*
X623598Y108730D01*
D02*
G37*
G36*
X618730D02*
X616402D01*
X616770Y107842D01*
X617842Y106770D01*
X618730Y106402D01*
Y108730D01*
D02*
G37*
G36*
X534707Y105154D02*
X532379D01*
Y102827D01*
X533267Y103195D01*
X534339Y104266D01*
X534707Y105154D01*
D02*
G37*
G36*
X529839D02*
X527511D01*
X527879Y104266D01*
X528951Y103195D01*
X529839Y102827D01*
Y105154D01*
D02*
G37*
G36*
X333770Y103598D02*
Y101270D01*
X336098D01*
X335730Y102158D01*
X334658Y103230D01*
X333770Y103598D01*
D02*
G37*
G36*
X331230D02*
X330342Y103230D01*
X329270Y102158D01*
X328902Y101270D01*
X331230D01*
Y103598D01*
D02*
G37*
G36*
X276270D02*
Y101270D01*
X278598D01*
X278230Y102158D01*
X277158Y103230D01*
X276270Y103598D01*
D02*
G37*
G36*
X273730D02*
X272842Y103230D01*
X271770Y102158D01*
X271402Y101270D01*
X273730D01*
Y103598D01*
D02*
G37*
G36*
X336098Y98730D02*
X333770D01*
Y96402D01*
X334658Y96770D01*
X335730Y97842D01*
X336098Y98730D01*
D02*
G37*
G36*
X331230D02*
X328902D01*
X329270Y97842D01*
X330342Y96770D01*
X331230Y96402D01*
Y98730D01*
D02*
G37*
G36*
X278598D02*
X276270D01*
Y96402D01*
X277158Y96770D01*
X278230Y97842D01*
X278598Y98730D01*
D02*
G37*
G36*
X273730D02*
X271402D01*
X271770Y97842D01*
X272842Y96770D01*
X273730Y96402D01*
Y98730D01*
D02*
G37*
G36*
X333770Y91098D02*
Y88770D01*
X336098D01*
X335730Y89658D01*
X334658Y90730D01*
X333770Y91098D01*
D02*
G37*
G36*
X331230D02*
X330342Y90730D01*
X329270Y89658D01*
X328902Y88770D01*
X331230D01*
Y91098D01*
D02*
G37*
G36*
X336098Y86230D02*
X333770D01*
Y83902D01*
X334658Y84270D01*
X335730Y85342D01*
X336098Y86230D01*
D02*
G37*
G36*
X331230D02*
X328902D01*
X329270Y85342D01*
X330342Y84270D01*
X331230Y83902D01*
Y86230D01*
D02*
G37*
G36*
X441270Y86098D02*
Y83770D01*
X443598D01*
X443230Y84658D01*
X442158Y85730D01*
X441270Y86098D01*
D02*
G37*
G36*
X438730D02*
X437842Y85730D01*
X436770Y84658D01*
X436402Y83770D01*
X438730D01*
Y86098D01*
D02*
G37*
G36*
X443598Y81230D02*
X441270D01*
Y78902D01*
X442158Y79270D01*
X443230Y80342D01*
X443598Y81230D01*
D02*
G37*
G36*
X438730D02*
X436402D01*
X436770Y80342D01*
X437842Y79270D01*
X438730Y78902D01*
Y81230D01*
D02*
G37*
G36*
X563770Y81098D02*
Y78770D01*
X566098D01*
X565730Y79658D01*
X564658Y80730D01*
X563770Y81098D01*
D02*
G37*
G36*
X561230D02*
X560342Y80730D01*
X559270Y79658D01*
X558902Y78770D01*
X561230D01*
Y81098D01*
D02*
G37*
G36*
X566098Y76230D02*
X563770D01*
Y73902D01*
X564658Y74270D01*
X565730Y75342D01*
X566098Y76230D01*
D02*
G37*
G36*
X561230D02*
X558902D01*
X559270Y75342D01*
X560342Y74270D01*
X561230Y73902D01*
Y76230D01*
D02*
G37*
G36*
X241270Y76098D02*
Y73770D01*
X243598D01*
X243230Y74658D01*
X242158Y75730D01*
X241270Y76098D01*
D02*
G37*
G36*
X238730D02*
X237842Y75730D01*
X236770Y74658D01*
X236402Y73770D01*
X238730D01*
Y76098D01*
D02*
G37*
G36*
X601270Y73598D02*
Y71270D01*
X603598D01*
X603230Y72158D01*
X602158Y73230D01*
X601270Y73598D01*
D02*
G37*
G36*
X598730D02*
X597842Y73230D01*
X596770Y72158D01*
X596402Y71270D01*
X598730D01*
Y73598D01*
D02*
G37*
G36*
X243598Y71230D02*
X241270D01*
Y68902D01*
X242158Y69270D01*
X243230Y70342D01*
X243598Y71230D01*
D02*
G37*
G36*
X238730D02*
X236402D01*
X236770Y70342D01*
X237842Y69270D01*
X238730Y68902D01*
Y71230D01*
D02*
G37*
G36*
X603598Y68730D02*
X601270D01*
Y66402D01*
X602158Y66770D01*
X603230Y67842D01*
X603598Y68730D01*
D02*
G37*
G36*
X598730D02*
X596402D01*
X596770Y67842D01*
X597842Y66770D01*
X598730Y66402D01*
Y68730D01*
D02*
G37*
G36*
X428770Y68598D02*
Y66270D01*
X431098D01*
X430730Y67158D01*
X429658Y68230D01*
X428770Y68598D01*
D02*
G37*
G36*
X426230D02*
X425342Y68230D01*
X424270Y67158D01*
X423902Y66270D01*
X426230D01*
Y68598D01*
D02*
G37*
G36*
X278770D02*
Y66270D01*
X281098D01*
X280730Y67158D01*
X279658Y68230D01*
X278770Y68598D01*
D02*
G37*
G36*
X276230D02*
X275342Y68230D01*
X274270Y67158D01*
X273902Y66270D01*
X276230D01*
Y68598D01*
D02*
G37*
G36*
X268770D02*
Y66270D01*
X271098D01*
X270730Y67158D01*
X269658Y68230D01*
X268770Y68598D01*
D02*
G37*
G36*
X266230D02*
X265342Y68230D01*
X264270Y67158D01*
X263902Y66270D01*
X266230D01*
Y68598D01*
D02*
G37*
G36*
X431098Y63730D02*
X428770D01*
Y61402D01*
X429658Y61770D01*
X430730Y62842D01*
X431098Y63730D01*
D02*
G37*
G36*
X426230D02*
X423902D01*
X424270Y62842D01*
X425342Y61770D01*
X426230Y61402D01*
Y63730D01*
D02*
G37*
G36*
X281098D02*
X278770D01*
Y61402D01*
X279658Y61770D01*
X280730Y62842D01*
X281098Y63730D01*
D02*
G37*
G36*
X276230D02*
X273902D01*
X274270Y62842D01*
X275342Y61770D01*
X276230Y61402D01*
Y63730D01*
D02*
G37*
G36*
X271098D02*
X268770D01*
Y61402D01*
X269658Y61770D01*
X270730Y62842D01*
X271098Y63730D01*
D02*
G37*
G36*
X266230D02*
X263902D01*
X264270Y62842D01*
X265342Y61770D01*
X266230Y61402D01*
Y63730D01*
D02*
G37*
G36*
X516270Y63598D02*
Y61270D01*
X518598D01*
X518230Y62158D01*
X517158Y63230D01*
X516270Y63598D01*
D02*
G37*
G36*
X513730D02*
X512842Y63230D01*
X511770Y62158D01*
X511402Y61270D01*
X513730D01*
Y63598D01*
D02*
G37*
G36*
X386270D02*
Y61270D01*
X388598D01*
X388230Y62158D01*
X387158Y63230D01*
X386270Y63598D01*
D02*
G37*
G36*
X383730D02*
X382842Y63230D01*
X381770Y62158D01*
X381402Y61270D01*
X383730D01*
Y63598D01*
D02*
G37*
G36*
X373770D02*
Y61270D01*
X376098D01*
X375730Y62158D01*
X374658Y63230D01*
X373770Y63598D01*
D02*
G37*
G36*
X371230D02*
X370342Y63230D01*
X369270Y62158D01*
X368902Y61270D01*
X371230D01*
Y63598D01*
D02*
G37*
G36*
X571011Y115080D02*
X568989D01*
X567122Y114307D01*
X565693Y112878D01*
X564920Y111011D01*
Y108990D01*
X565693Y107122D01*
X567122Y105693D01*
X568989Y104920D01*
X571011D01*
X572878Y105693D01*
X573218Y106034D01*
X578114D01*
X579832Y104316D01*
Y74435D01*
X570161Y64764D01*
X569459Y63714D01*
X569213Y62475D01*
Y45765D01*
X563523Y40075D01*
X563511Y40080D01*
X561489D01*
X559622Y39307D01*
X558193Y37878D01*
X557420Y36010D01*
Y33990D01*
X558193Y32122D01*
X559622Y30693D01*
X561489Y29920D01*
X563511D01*
X565378Y30693D01*
X566807Y32122D01*
X567580Y33990D01*
Y34975D01*
X574739Y42135D01*
X575441Y43185D01*
X575687Y44424D01*
Y61134D01*
X585358Y70805D01*
X585493Y71007D01*
X586763Y70621D01*
Y68947D01*
X585693Y67878D01*
X584920Y66010D01*
Y63990D01*
X585693Y62122D01*
X587122Y60693D01*
X588989Y59920D01*
X591011D01*
X592878Y60693D01*
X594307Y62122D01*
X595080Y63990D01*
Y66010D01*
X594307Y67878D01*
X593237Y68947D01*
Y81728D01*
X595697Y84188D01*
X596178D01*
X598045Y84961D01*
X599474Y86390D01*
X600248Y88257D01*
Y90278D01*
X599474Y92145D01*
X598045Y93574D01*
X596178Y94348D01*
X594157D01*
X592290Y93574D01*
X590861Y92145D01*
X590088Y90278D01*
Y88257D01*
X590241Y87888D01*
X587711Y85358D01*
X587576Y85156D01*
X586306Y85541D01*
Y105657D01*
X586060Y106896D01*
X585358Y107946D01*
X581744Y111560D01*
X580694Y112262D01*
X579455Y112508D01*
X574460D01*
X574307Y112878D01*
X572878Y114307D01*
X571011Y115080D01*
D02*
G37*
G36*
X518598Y58730D02*
X516270D01*
Y56402D01*
X517158Y56770D01*
X518230Y57842D01*
X518598Y58730D01*
D02*
G37*
G36*
X513730D02*
X511402D01*
X511770Y57842D01*
X512842Y56770D01*
X513730Y56402D01*
Y58730D01*
D02*
G37*
G36*
X388598D02*
X386270D01*
Y56402D01*
X387158Y56770D01*
X388230Y57842D01*
X388598Y58730D01*
D02*
G37*
G36*
X383730D02*
X381402D01*
X381770Y57842D01*
X382842Y56770D01*
X383730Y56402D01*
Y58730D01*
D02*
G37*
G36*
X376098D02*
X373770D01*
Y56402D01*
X374658Y56770D01*
X375730Y57842D01*
X376098Y58730D01*
D02*
G37*
G36*
X371230D02*
X368902D01*
X369270Y57842D01*
X370342Y56770D01*
X371230Y56402D01*
Y58730D01*
D02*
G37*
G36*
X531270Y51098D02*
Y48770D01*
X533598D01*
X533230Y49658D01*
X532158Y50730D01*
X531270Y51098D01*
D02*
G37*
G36*
X528730D02*
X527842Y50730D01*
X526770Y49658D01*
X526402Y48770D01*
X528730D01*
Y51098D01*
D02*
G37*
G36*
X212368Y47328D02*
Y45000D01*
X214696D01*
X214328Y45888D01*
X213256Y46960D01*
X212368Y47328D01*
D02*
G37*
G36*
X209828D02*
X208940Y46960D01*
X207868Y45888D01*
X207500Y45000D01*
X209828D01*
Y47328D01*
D02*
G37*
G36*
X533598Y46230D02*
X531270D01*
Y43902D01*
X532158Y44270D01*
X533230Y45342D01*
X533598Y46230D01*
D02*
G37*
G36*
X528730D02*
X526402D01*
X526770Y45342D01*
X527842Y44270D01*
X528730Y43902D01*
Y46230D01*
D02*
G37*
G36*
X333511Y77580D02*
X331489D01*
X329622Y76807D01*
X328193Y75378D01*
X327420Y73510D01*
Y71490D01*
X328193Y69622D01*
X329622Y68193D01*
X331489Y67420D01*
X333511D01*
X333798Y67539D01*
X355189Y46149D01*
X356029Y45588D01*
X357020Y45390D01*
X363019D01*
X363138Y45103D01*
X364567Y43674D01*
X366434Y42900D01*
X368455D01*
X370322Y43674D01*
X371751Y45103D01*
X372524Y46970D01*
Y48991D01*
X371751Y50858D01*
X370322Y52287D01*
X368455Y53060D01*
X366434D01*
X364567Y52287D01*
X363138Y50858D01*
X363019Y50570D01*
X358093D01*
X337461Y71202D01*
X337580Y71490D01*
Y73510D01*
X336807Y75378D01*
X335378Y76807D01*
X333511Y77580D01*
D02*
G37*
G36*
X214696Y42460D02*
X212368D01*
Y40132D01*
X213256Y40500D01*
X214328Y41572D01*
X214696Y42460D01*
D02*
G37*
G36*
X209828D02*
X207500D01*
X207868Y41572D01*
X208940Y40500D01*
X209828Y40132D01*
Y42460D01*
D02*
G37*
G36*
X421270Y41098D02*
Y38770D01*
X423598D01*
X423230Y39658D01*
X422158Y40730D01*
X421270Y41098D01*
D02*
G37*
G36*
X418730D02*
X417842Y40730D01*
X416770Y39658D01*
X416402Y38770D01*
X418730D01*
Y41098D01*
D02*
G37*
G36*
X113770D02*
Y38770D01*
X116098D01*
X115730Y39658D01*
X114658Y40730D01*
X113770Y41098D01*
D02*
G37*
G36*
X111230D02*
X110342Y40730D01*
X109270Y39658D01*
X108902Y38770D01*
X111230D01*
Y41098D01*
D02*
G37*
G36*
X423598Y36230D02*
X421270D01*
Y33902D01*
X422158Y34270D01*
X423230Y35342D01*
X423598Y36230D01*
D02*
G37*
G36*
X418730D02*
X416402D01*
X416770Y35342D01*
X417842Y34270D01*
X418730Y33902D01*
Y36230D01*
D02*
G37*
G36*
X116098D02*
X113770D01*
Y33902D01*
X114658Y34270D01*
X115730Y35342D01*
X116098Y36230D01*
D02*
G37*
G36*
X111230D02*
X108902D01*
X109270Y35342D01*
X110342Y34270D01*
X111230Y33902D01*
Y36230D01*
D02*
G37*
G36*
X308510Y112580D02*
X306490D01*
X304622Y111807D01*
X303193Y110378D01*
X302420Y108511D01*
Y106489D01*
X303193Y104622D01*
X304622Y103193D01*
X304910Y103074D01*
Y44349D01*
X303141Y42580D01*
X301490D01*
X299622Y41807D01*
X298193Y40378D01*
X297420Y38510D01*
Y36490D01*
X298193Y34622D01*
X299622Y33193D01*
X301490Y32420D01*
X303510D01*
X305378Y33193D01*
X306807Y34622D01*
X307580Y36490D01*
Y38510D01*
X307233Y39347D01*
X309331Y41445D01*
X309893Y42285D01*
X310090Y43276D01*
Y103074D01*
X310378Y103193D01*
X311807Y104622D01*
X312580Y106489D01*
Y108511D01*
X311807Y110378D01*
X310378Y111807D01*
X308510Y112580D01*
D02*
G37*
G36*
X421270Y31098D02*
Y28770D01*
X423598D01*
X423230Y29658D01*
X422158Y30730D01*
X421270Y31098D01*
D02*
G37*
G36*
X418730D02*
X417842Y30730D01*
X416770Y29658D01*
X416402Y28770D01*
X418730D01*
Y31098D01*
D02*
G37*
G36*
X213770D02*
Y28770D01*
X216098D01*
X215730Y29658D01*
X214658Y30730D01*
X213770Y31098D01*
D02*
G37*
G36*
X211230D02*
X210342Y30730D01*
X209270Y29658D01*
X208902Y28770D01*
X211230D01*
Y31098D01*
D02*
G37*
G36*
X623730Y28598D02*
X622842Y28230D01*
X621770Y27158D01*
X621402Y26270D01*
X623730D01*
Y28598D01*
D02*
G37*
G36*
X423598Y26230D02*
X421270D01*
Y23902D01*
X422158Y24270D01*
X423230Y25342D01*
X423598Y26230D01*
D02*
G37*
G36*
X418730D02*
X416402D01*
X416770Y25342D01*
X417842Y24270D01*
X418730Y23902D01*
Y26230D01*
D02*
G37*
G36*
X216098D02*
X213770D01*
Y23902D01*
X214658Y24270D01*
X215730Y25342D01*
X216098Y26230D01*
D02*
G37*
G36*
X211230D02*
X208902D01*
X209270Y25342D01*
X210342Y24270D01*
X211230Y23902D01*
Y26230D01*
D02*
G37*
G36*
X623730Y23730D02*
X621402D01*
X621770Y22842D01*
X622842Y21770D01*
X623730Y21402D01*
Y23730D01*
D02*
G37*
G36*
X421270Y21098D02*
Y18770D01*
X423598D01*
X423230Y19658D01*
X422158Y20730D01*
X421270Y21098D01*
D02*
G37*
G36*
X418730D02*
X417842Y20730D01*
X416770Y19658D01*
X416402Y18770D01*
X418730D01*
Y21098D01*
D02*
G37*
G36*
X125848Y31408D02*
X123996D01*
X122208Y30929D01*
X120605Y30003D01*
X119297Y28694D01*
X118371Y27091D01*
X117892Y25303D01*
Y23452D01*
X118371Y21664D01*
X119297Y20061D01*
X120605Y18752D01*
X122208Y17827D01*
X123996Y17348D01*
X125848D01*
X127635Y17827D01*
X129239Y18752D01*
X130547Y20061D01*
X131473Y21664D01*
X131952Y23452D01*
Y25303D01*
X131473Y27091D01*
X130547Y28694D01*
X129239Y30003D01*
X127635Y30929D01*
X125848Y31408D01*
D02*
G37*
G36*
X423598Y16230D02*
X421270D01*
Y13902D01*
X422158Y14270D01*
X423230Y15342D01*
X423598Y16230D01*
D02*
G37*
G36*
X418730D02*
X416402D01*
X416770Y15342D01*
X417842Y14270D01*
X418730Y13902D01*
Y16230D01*
D02*
G37*
G36*
X613770Y16098D02*
Y13770D01*
X616098D01*
X615730Y14658D01*
X614658Y15730D01*
X613770Y16098D01*
D02*
G37*
G36*
X611230D02*
X610342Y15730D01*
X609270Y14658D01*
X608902Y13770D01*
X611230D01*
Y16098D01*
D02*
G37*
G36*
X588770D02*
Y13770D01*
X591098D01*
X590730Y14658D01*
X589658Y15730D01*
X588770Y16098D01*
D02*
G37*
G36*
X586230D02*
X585342Y15730D01*
X584270Y14658D01*
X583902Y13770D01*
X586230D01*
Y16098D01*
D02*
G37*
G36*
X563770D02*
Y13770D01*
X566098D01*
X565730Y14658D01*
X564658Y15730D01*
X563770Y16098D01*
D02*
G37*
G36*
X561230D02*
X560342Y15730D01*
X559270Y14658D01*
X558902Y13770D01*
X561230D01*
Y16098D01*
D02*
G37*
G36*
X538770D02*
Y13770D01*
X541098D01*
X540730Y14658D01*
X539658Y15730D01*
X538770Y16098D01*
D02*
G37*
G36*
X536230D02*
X535342Y15730D01*
X534270Y14658D01*
X533902Y13770D01*
X536230D01*
Y16098D01*
D02*
G37*
G36*
X513770D02*
Y13770D01*
X516098D01*
X515730Y14658D01*
X514658Y15730D01*
X513770Y16098D01*
D02*
G37*
G36*
X511230D02*
X510342Y15730D01*
X509270Y14658D01*
X508902Y13770D01*
X511230D01*
Y16098D01*
D02*
G37*
G36*
X488770D02*
Y13770D01*
X491098D01*
X490730Y14658D01*
X489658Y15730D01*
X488770Y16098D01*
D02*
G37*
G36*
X486230D02*
X485342Y15730D01*
X484270Y14658D01*
X483902Y13770D01*
X486230D01*
Y16098D01*
D02*
G37*
G36*
X301270D02*
Y13770D01*
X303598D01*
X303230Y14658D01*
X302158Y15730D01*
X301270Y16098D01*
D02*
G37*
G36*
X298730D02*
X297842Y15730D01*
X296770Y14658D01*
X296402Y13770D01*
X298730D01*
Y16098D01*
D02*
G37*
G36*
X276270D02*
Y13770D01*
X278598D01*
X278230Y14658D01*
X277158Y15730D01*
X276270Y16098D01*
D02*
G37*
G36*
X273730D02*
X272842Y15730D01*
X271770Y14658D01*
X271402Y13770D01*
X273730D01*
Y16098D01*
D02*
G37*
G36*
X226270D02*
Y13770D01*
X228598D01*
X228230Y14658D01*
X227158Y15730D01*
X226270Y16098D01*
D02*
G37*
G36*
X223730D02*
X222842Y15730D01*
X221770Y14658D01*
X221402Y13770D01*
X223730D01*
Y16098D01*
D02*
G37*
G36*
X201270D02*
Y13770D01*
X203598D01*
X203230Y14658D01*
X202158Y15730D01*
X201270Y16098D01*
D02*
G37*
G36*
X198730D02*
X197842Y15730D01*
X196770Y14658D01*
X196402Y13770D01*
X198730D01*
Y16098D01*
D02*
G37*
G36*
X176270D02*
Y13770D01*
X178598D01*
X178230Y14658D01*
X177158Y15730D01*
X176270Y16098D01*
D02*
G37*
G36*
X173730D02*
X172842Y15730D01*
X171770Y14658D01*
X171402Y13770D01*
X173730D01*
Y16098D01*
D02*
G37*
G36*
X151270D02*
Y13770D01*
X153598D01*
X153230Y14658D01*
X152158Y15730D01*
X151270Y16098D01*
D02*
G37*
G36*
X148730D02*
X147842Y15730D01*
X146770Y14658D01*
X146402Y13770D01*
X148730D01*
Y16098D01*
D02*
G37*
G36*
X303598Y11230D02*
X301270D01*
Y8902D01*
X302158Y9270D01*
X303230Y10342D01*
X303598Y11230D01*
D02*
G37*
G36*
X298730D02*
X296402D01*
X296770Y10342D01*
X297842Y9270D01*
X298730Y8902D01*
Y11230D01*
D02*
G37*
G36*
X278598D02*
X276270D01*
Y8902D01*
X277158Y9270D01*
X278230Y10342D01*
X278598Y11230D01*
D02*
G37*
G36*
X273730D02*
X271402D01*
X271770Y10342D01*
X272842Y9270D01*
X273730Y8902D01*
Y11230D01*
D02*
G37*
G36*
X228598D02*
X226270D01*
Y8902D01*
X227158Y9270D01*
X228230Y10342D01*
X228598Y11230D01*
D02*
G37*
G36*
X223730D02*
X221402D01*
X221770Y10342D01*
X222842Y9270D01*
X223730Y8902D01*
Y11230D01*
D02*
G37*
G36*
X203598D02*
X201270D01*
Y8902D01*
X202158Y9270D01*
X203230Y10342D01*
X203598Y11230D01*
D02*
G37*
G36*
X198730D02*
X196402D01*
X196770Y10342D01*
X197842Y9270D01*
X198730Y8902D01*
Y11230D01*
D02*
G37*
G36*
X178598D02*
X176270D01*
Y8902D01*
X177158Y9270D01*
X178230Y10342D01*
X178598Y11230D01*
D02*
G37*
G36*
X173730D02*
X171402D01*
X171770Y10342D01*
X172842Y9270D01*
X173730Y8902D01*
Y11230D01*
D02*
G37*
G36*
X153598D02*
X151270D01*
Y8902D01*
X152158Y9270D01*
X153230Y10342D01*
X153598Y11230D01*
D02*
G37*
G36*
X148730D02*
X146402D01*
X146770Y10342D01*
X147842Y9270D01*
X148730Y8902D01*
Y11230D01*
D02*
G37*
G36*
X616098D02*
X613770D01*
Y8902D01*
X614658Y9270D01*
X615730Y10342D01*
X616098Y11230D01*
D02*
G37*
G36*
X611230D02*
X608902D01*
X609270Y10342D01*
X610342Y9270D01*
X611230Y8902D01*
Y11230D01*
D02*
G37*
G36*
X591098D02*
X588770D01*
Y8902D01*
X589658Y9270D01*
X590730Y10342D01*
X591098Y11230D01*
D02*
G37*
G36*
X586230D02*
X583902D01*
X584270Y10342D01*
X585342Y9270D01*
X586230Y8902D01*
Y11230D01*
D02*
G37*
G36*
X566098D02*
X563770D01*
Y8902D01*
X564658Y9270D01*
X565730Y10342D01*
X566098Y11230D01*
D02*
G37*
G36*
X561230D02*
X558902D01*
X559270Y10342D01*
X560342Y9270D01*
X561230Y8902D01*
Y11230D01*
D02*
G37*
G36*
X541098D02*
X538770D01*
Y8902D01*
X539658Y9270D01*
X540730Y10342D01*
X541098Y11230D01*
D02*
G37*
G36*
X536230D02*
X533902D01*
X534270Y10342D01*
X535342Y9270D01*
X536230Y8902D01*
Y11230D01*
D02*
G37*
G36*
X516098D02*
X513770D01*
Y8902D01*
X514658Y9270D01*
X515730Y10342D01*
X516098Y11230D01*
D02*
G37*
G36*
X511230D02*
X508902D01*
X509270Y10342D01*
X510342Y9270D01*
X511230Y8902D01*
Y11230D01*
D02*
G37*
G36*
X491098D02*
X488770D01*
Y8902D01*
X489658Y9270D01*
X490730Y10342D01*
X491098Y11230D01*
D02*
G37*
G36*
X486230D02*
X483902D01*
X484270Y10342D01*
X485342Y9270D01*
X486230Y8902D01*
Y11230D01*
D02*
G37*
G36*
X103648Y273270D02*
X101352D01*
X99232Y272392D01*
X97608Y270768D01*
X96730Y268648D01*
Y266352D01*
X97608Y264232D01*
X99232Y262608D01*
X101352Y261730D01*
X103648D01*
X105768Y262608D01*
X107392Y264232D01*
X108270Y266352D01*
Y268648D01*
X107392Y270768D01*
X105768Y272392D01*
X103648Y273270D01*
D02*
G37*
G36*
X111270Y183598D02*
Y181270D01*
X113598D01*
X113230Y182158D01*
X112158Y183230D01*
X111270Y183598D01*
D02*
G37*
G36*
X108730D02*
X107842Y183230D01*
X106770Y182158D01*
X106402Y181270D01*
X108730D01*
Y183598D01*
D02*
G37*
G36*
X101270D02*
Y181270D01*
X103598D01*
X103230Y182158D01*
X102158Y183230D01*
X101270Y183598D01*
D02*
G37*
G36*
X98730D02*
X97842Y183230D01*
X96770Y182158D01*
X96402Y181270D01*
X98730D01*
Y183598D01*
D02*
G37*
G36*
X91270D02*
Y181270D01*
X93598D01*
X93230Y182158D01*
X92158Y183230D01*
X91270Y183598D01*
D02*
G37*
G36*
X88730D02*
X87842Y183230D01*
X86770Y182158D01*
X86402Y181270D01*
X88730D01*
Y183598D01*
D02*
G37*
G36*
X81270D02*
Y181270D01*
X83598D01*
X83230Y182158D01*
X82158Y183230D01*
X81270Y183598D01*
D02*
G37*
G36*
X78730D02*
X77842Y183230D01*
X76770Y182158D01*
X76402Y181270D01*
X78730D01*
Y183598D01*
D02*
G37*
G36*
X71270D02*
Y181270D01*
X73598D01*
X73230Y182158D01*
X72158Y183230D01*
X71270Y183598D01*
D02*
G37*
G36*
X68730D02*
X67842Y183230D01*
X66770Y182158D01*
X66402Y181270D01*
X68730D01*
Y183598D01*
D02*
G37*
G36*
X113598Y178730D02*
X111270D01*
Y176402D01*
X112158Y176770D01*
X113230Y177842D01*
X113598Y178730D01*
D02*
G37*
G36*
X108730D02*
X106402D01*
X106770Y177842D01*
X107842Y176770D01*
X108730Y176402D01*
Y178730D01*
D02*
G37*
G36*
X103598D02*
X101270D01*
Y176402D01*
X102158Y176770D01*
X103230Y177842D01*
X103598Y178730D01*
D02*
G37*
G36*
X98730D02*
X96402D01*
X96770Y177842D01*
X97842Y176770D01*
X98730Y176402D01*
Y178730D01*
D02*
G37*
G36*
X93598D02*
X91270D01*
Y176402D01*
X92158Y176770D01*
X93230Y177842D01*
X93598Y178730D01*
D02*
G37*
G36*
X88730D02*
X86402D01*
X86770Y177842D01*
X87842Y176770D01*
X88730Y176402D01*
Y178730D01*
D02*
G37*
G36*
X83598D02*
X81270D01*
Y176402D01*
X82158Y176770D01*
X83230Y177842D01*
X83598Y178730D01*
D02*
G37*
G36*
X78730D02*
X76402D01*
X76770Y177842D01*
X77842Y176770D01*
X78730Y176402D01*
Y178730D01*
D02*
G37*
G36*
X73598D02*
X71270D01*
Y176402D01*
X72158Y176770D01*
X73230Y177842D01*
X73598Y178730D01*
D02*
G37*
G36*
X68730D02*
X66402D01*
X66770Y177842D01*
X67842Y176770D01*
X68730Y176402D01*
Y178730D01*
D02*
G37*
G36*
X113770Y173598D02*
Y171270D01*
X116098D01*
X115730Y172158D01*
X114658Y173230D01*
X113770Y173598D01*
D02*
G37*
G36*
X111230D02*
X110342Y173230D01*
X109270Y172158D01*
X108902Y171270D01*
X111230D01*
Y173598D01*
D02*
G37*
G36*
X68770D02*
Y171270D01*
X71098D01*
X70730Y172158D01*
X69658Y173230D01*
X68770Y173598D01*
D02*
G37*
G36*
X66230D02*
X65342Y173230D01*
X64270Y172158D01*
X63902Y171270D01*
X66230D01*
Y173598D01*
D02*
G37*
G36*
X116098Y168730D02*
X113770D01*
Y166402D01*
X114658Y166770D01*
X115730Y167842D01*
X116098Y168730D01*
D02*
G37*
G36*
X111230D02*
X108902D01*
X109270Y167842D01*
X110342Y166770D01*
X111230Y166402D01*
Y168730D01*
D02*
G37*
G36*
X71098D02*
X68770D01*
Y166402D01*
X69658Y166770D01*
X70730Y167842D01*
X71098Y168730D01*
D02*
G37*
G36*
X66230D02*
X63902D01*
X64270Y167842D01*
X65342Y166770D01*
X66230Y166402D01*
Y168730D01*
D02*
G37*
G36*
X113770Y163598D02*
Y161270D01*
X116098D01*
X115730Y162158D01*
X114658Y163230D01*
X113770Y163598D01*
D02*
G37*
G36*
X111230D02*
X110342Y163230D01*
X109270Y162158D01*
X108902Y161270D01*
X111230D01*
Y163598D01*
D02*
G37*
G36*
X68770D02*
Y161270D01*
X71098D01*
X70730Y162158D01*
X69658Y163230D01*
X68770Y163598D01*
D02*
G37*
G36*
X66230D02*
X65342Y163230D01*
X64270Y162158D01*
X63902Y161270D01*
X66230D01*
Y163598D01*
D02*
G37*
G36*
X116098Y158730D02*
X113770D01*
Y156402D01*
X114658Y156770D01*
X115730Y157842D01*
X116098Y158730D01*
D02*
G37*
G36*
X111230D02*
X108902D01*
X109270Y157842D01*
X110342Y156770D01*
X111230Y156402D01*
Y158730D01*
D02*
G37*
G36*
X71098D02*
X68770D01*
Y156402D01*
X69658Y156770D01*
X70730Y157842D01*
X71098Y158730D01*
D02*
G37*
G36*
X66230D02*
X63902D01*
X64270Y157842D01*
X65342Y156770D01*
X66230Y156402D01*
Y158730D01*
D02*
G37*
G36*
X106270Y158598D02*
Y156270D01*
X108598D01*
X108230Y157158D01*
X107158Y158230D01*
X106270Y158598D01*
D02*
G37*
G36*
X103730D02*
X102842Y158230D01*
X101770Y157158D01*
X101402Y156270D01*
X103730D01*
Y158598D01*
D02*
G37*
G36*
X96270D02*
Y156270D01*
X98598D01*
X98230Y157158D01*
X97158Y158230D01*
X96270Y158598D01*
D02*
G37*
G36*
X93730D02*
X92842Y158230D01*
X91770Y157158D01*
X91402Y156270D01*
X93730D01*
Y158598D01*
D02*
G37*
G36*
X86270D02*
Y156270D01*
X88598D01*
X88230Y157158D01*
X87158Y158230D01*
X86270Y158598D01*
D02*
G37*
G36*
X83730D02*
X82842Y158230D01*
X81770Y157158D01*
X81402Y156270D01*
X83730D01*
Y158598D01*
D02*
G37*
G36*
X76270D02*
Y156270D01*
X78598D01*
X78230Y157158D01*
X77158Y158230D01*
X76270Y158598D01*
D02*
G37*
G36*
X73730D02*
X72842Y158230D01*
X71770Y157158D01*
X71402Y156270D01*
X73730D01*
Y158598D01*
D02*
G37*
G36*
X108598Y153730D02*
X106270D01*
Y151402D01*
X107158Y151770D01*
X108230Y152842D01*
X108598Y153730D01*
D02*
G37*
G36*
X103730D02*
X101402D01*
X101770Y152842D01*
X102842Y151770D01*
X103730Y151402D01*
Y153730D01*
D02*
G37*
G36*
X98598D02*
X96270D01*
Y151402D01*
X97158Y151770D01*
X98230Y152842D01*
X98598Y153730D01*
D02*
G37*
G36*
X93730D02*
X91402D01*
X91770Y152842D01*
X92842Y151770D01*
X93730Y151402D01*
Y153730D01*
D02*
G37*
G36*
X88598D02*
X86270D01*
Y151402D01*
X87158Y151770D01*
X88230Y152842D01*
X88598Y153730D01*
D02*
G37*
G36*
X83730D02*
X81402D01*
X81770Y152842D01*
X82842Y151770D01*
X83730Y151402D01*
Y153730D01*
D02*
G37*
G36*
X78598D02*
X76270D01*
Y151402D01*
X77158Y151770D01*
X78230Y152842D01*
X78598Y153730D01*
D02*
G37*
G36*
X73730D02*
X71402D01*
X71770Y152842D01*
X72842Y151770D01*
X73730Y151402D01*
Y153730D01*
D02*
G37*
G36*
X106270Y113598D02*
Y111270D01*
X108598D01*
X108230Y112158D01*
X107158Y113230D01*
X106270Y113598D01*
D02*
G37*
G36*
X103730D02*
X102842Y113230D01*
X101770Y112158D01*
X101402Y111270D01*
X103730D01*
Y113598D01*
D02*
G37*
G36*
X96270D02*
Y111270D01*
X98598D01*
X98230Y112158D01*
X97158Y113230D01*
X96270Y113598D01*
D02*
G37*
G36*
X93730D02*
X92842Y113230D01*
X91770Y112158D01*
X91402Y111270D01*
X93730D01*
Y113598D01*
D02*
G37*
G36*
X86270D02*
Y111270D01*
X88598D01*
X88230Y112158D01*
X87158Y113230D01*
X86270Y113598D01*
D02*
G37*
G36*
X83730D02*
X82842Y113230D01*
X81770Y112158D01*
X81402Y111270D01*
X83730D01*
Y113598D01*
D02*
G37*
G36*
X76270D02*
Y111270D01*
X78598D01*
X78230Y112158D01*
X77158Y113230D01*
X76270Y113598D01*
D02*
G37*
G36*
X73730D02*
X72842Y113230D01*
X71770Y112158D01*
X71402Y111270D01*
X73730D01*
Y113598D01*
D02*
G37*
G36*
X108598Y108730D02*
X106270D01*
Y106402D01*
X107158Y106770D01*
X108230Y107842D01*
X108598Y108730D01*
D02*
G37*
G36*
X103730D02*
X101402D01*
X101770Y107842D01*
X102842Y106770D01*
X103730Y106402D01*
Y108730D01*
D02*
G37*
G36*
X98598D02*
X96270D01*
Y106402D01*
X97158Y106770D01*
X98230Y107842D01*
X98598Y108730D01*
D02*
G37*
G36*
X93730D02*
X91402D01*
X91770Y107842D01*
X92842Y106770D01*
X93730Y106402D01*
Y108730D01*
D02*
G37*
G36*
X88598D02*
X86270D01*
Y106402D01*
X87158Y106770D01*
X88230Y107842D01*
X88598Y108730D01*
D02*
G37*
G36*
X83730D02*
X81402D01*
X81770Y107842D01*
X82842Y106770D01*
X83730Y106402D01*
Y108730D01*
D02*
G37*
G36*
X78598D02*
X76270D01*
Y106402D01*
X77158Y106770D01*
X78230Y107842D01*
X78598Y108730D01*
D02*
G37*
G36*
X73730D02*
X71402D01*
X71770Y107842D01*
X72842Y106770D01*
X73730Y106402D01*
Y108730D01*
D02*
G37*
G36*
X113770Y108598D02*
Y106270D01*
X116098D01*
X115730Y107158D01*
X114658Y108230D01*
X113770Y108598D01*
D02*
G37*
G36*
X111230D02*
X110342Y108230D01*
X109270Y107158D01*
X108902Y106270D01*
X111230D01*
Y108598D01*
D02*
G37*
G36*
X68770D02*
Y106270D01*
X71098D01*
X70730Y107158D01*
X69658Y108230D01*
X68770Y108598D01*
D02*
G37*
G36*
X66230D02*
X65342Y108230D01*
X64270Y107158D01*
X63902Y106270D01*
X66230D01*
Y108598D01*
D02*
G37*
G36*
X116098Y103730D02*
X113770D01*
Y101402D01*
X114658Y101770D01*
X115730Y102842D01*
X116098Y103730D01*
D02*
G37*
G36*
X111230D02*
X108902D01*
X109270Y102842D01*
X110342Y101770D01*
X111230Y101402D01*
Y103730D01*
D02*
G37*
G36*
X71098D02*
X68770D01*
Y101402D01*
X69658Y101770D01*
X70730Y102842D01*
X71098Y103730D01*
D02*
G37*
G36*
X66230D02*
X63902D01*
X64270Y102842D01*
X65342Y101770D01*
X66230Y101402D01*
Y103730D01*
D02*
G37*
G36*
X113770Y98598D02*
Y96270D01*
X116098D01*
X115730Y97158D01*
X114658Y98230D01*
X113770Y98598D01*
D02*
G37*
G36*
X111230D02*
X110342Y98230D01*
X109270Y97158D01*
X108902Y96270D01*
X111230D01*
Y98598D01*
D02*
G37*
G36*
X68770D02*
Y96270D01*
X71098D01*
X70730Y97158D01*
X69658Y98230D01*
X68770Y98598D01*
D02*
G37*
G36*
X66230D02*
X65342Y98230D01*
X64270Y97158D01*
X63902Y96270D01*
X66230D01*
Y98598D01*
D02*
G37*
G36*
X116098Y93730D02*
X113770D01*
Y91402D01*
X114658Y91770D01*
X115730Y92842D01*
X116098Y93730D01*
D02*
G37*
G36*
X111230D02*
X108902D01*
X109270Y92842D01*
X110342Y91770D01*
X111230Y91402D01*
Y93730D01*
D02*
G37*
G36*
X71098D02*
X68770D01*
Y91402D01*
X69658Y91770D01*
X70730Y92842D01*
X71098Y93730D01*
D02*
G37*
G36*
X66230D02*
X63902D01*
X64270Y92842D01*
X65342Y91770D01*
X66230Y91402D01*
Y93730D01*
D02*
G37*
G36*
X111270Y88598D02*
Y86270D01*
X113598D01*
X113230Y87158D01*
X112158Y88230D01*
X111270Y88598D01*
D02*
G37*
G36*
X108730D02*
X107842Y88230D01*
X106770Y87158D01*
X106402Y86270D01*
X108730D01*
Y88598D01*
D02*
G37*
G36*
X101270D02*
Y86270D01*
X103598D01*
X103230Y87158D01*
X102158Y88230D01*
X101270Y88598D01*
D02*
G37*
G36*
X98730D02*
X97842Y88230D01*
X96770Y87158D01*
X96402Y86270D01*
X98730D01*
Y88598D01*
D02*
G37*
G36*
X91270D02*
Y86270D01*
X93598D01*
X93230Y87158D01*
X92158Y88230D01*
X91270Y88598D01*
D02*
G37*
G36*
X88730D02*
X87842Y88230D01*
X86770Y87158D01*
X86402Y86270D01*
X88730D01*
Y88598D01*
D02*
G37*
G36*
X81270D02*
Y86270D01*
X83598D01*
X83230Y87158D01*
X82158Y88230D01*
X81270Y88598D01*
D02*
G37*
G36*
X78730D02*
X77842Y88230D01*
X76770Y87158D01*
X76402Y86270D01*
X78730D01*
Y88598D01*
D02*
G37*
G36*
X71270D02*
Y86270D01*
X73598D01*
X73230Y87158D01*
X72158Y88230D01*
X71270Y88598D01*
D02*
G37*
G36*
X68730D02*
X67842Y88230D01*
X66770Y87158D01*
X66402Y86270D01*
X68730D01*
Y88598D01*
D02*
G37*
G36*
X113598Y83730D02*
X111270D01*
Y81402D01*
X112158Y81770D01*
X113230Y82842D01*
X113598Y83730D01*
D02*
G37*
G36*
X108730D02*
X106402D01*
X106770Y82842D01*
X107842Y81770D01*
X108730Y81402D01*
Y83730D01*
D02*
G37*
G36*
X103598D02*
X101270D01*
Y81402D01*
X102158Y81770D01*
X103230Y82842D01*
X103598Y83730D01*
D02*
G37*
G36*
X98730D02*
X96402D01*
X96770Y82842D01*
X97842Y81770D01*
X98730Y81402D01*
Y83730D01*
D02*
G37*
G36*
X93598D02*
X91270D01*
Y81402D01*
X92158Y81770D01*
X93230Y82842D01*
X93598Y83730D01*
D02*
G37*
G36*
X88730D02*
X86402D01*
X86770Y82842D01*
X87842Y81770D01*
X88730Y81402D01*
Y83730D01*
D02*
G37*
G36*
X83598D02*
X81270D01*
Y81402D01*
X82158Y81770D01*
X83230Y82842D01*
X83598Y83730D01*
D02*
G37*
G36*
X78730D02*
X76402D01*
X76770Y82842D01*
X77842Y81770D01*
X78730Y81402D01*
Y83730D01*
D02*
G37*
G36*
X73598D02*
X71270D01*
Y81402D01*
X72158Y81770D01*
X73230Y82842D01*
X73598Y83730D01*
D02*
G37*
G36*
X68730D02*
X66402D01*
X66770Y82842D01*
X67842Y81770D01*
X68730Y81402D01*
Y83730D01*
D02*
G37*
G36*
X1011270Y343598D02*
Y341270D01*
X1013598D01*
X1013230Y342158D01*
X1012158Y343230D01*
X1011270Y343598D01*
D02*
G37*
G36*
X1008730D02*
X1007842Y343230D01*
X1006770Y342158D01*
X1006402Y341270D01*
X1008730D01*
Y343598D01*
D02*
G37*
G36*
X971270D02*
Y341270D01*
X973598D01*
X973230Y342158D01*
X972158Y343230D01*
X971270Y343598D01*
D02*
G37*
G36*
X968730D02*
X967842Y343230D01*
X966770Y342158D01*
X966402Y341270D01*
X968730D01*
Y343598D01*
D02*
G37*
G36*
X931270D02*
Y341270D01*
X933598D01*
X933230Y342158D01*
X932158Y343230D01*
X931270Y343598D01*
D02*
G37*
G36*
X928730D02*
X927842Y343230D01*
X926770Y342158D01*
X926402Y341270D01*
X928730D01*
Y343598D01*
D02*
G37*
G36*
X891270D02*
Y341270D01*
X893598D01*
X893230Y342158D01*
X892158Y343230D01*
X891270Y343598D01*
D02*
G37*
G36*
X888730D02*
X887842Y343230D01*
X886770Y342158D01*
X886402Y341270D01*
X888730D01*
Y343598D01*
D02*
G37*
G36*
X851270D02*
Y341270D01*
X853598D01*
X853230Y342158D01*
X852158Y343230D01*
X851270Y343598D01*
D02*
G37*
G36*
X848730D02*
X847842Y343230D01*
X846770Y342158D01*
X846402Y341270D01*
X848730D01*
Y343598D01*
D02*
G37*
G36*
X781270D02*
Y341270D01*
X783598D01*
X783230Y342158D01*
X782158Y343230D01*
X781270Y343598D01*
D02*
G37*
G36*
X778730D02*
X777842Y343230D01*
X776770Y342158D01*
X776402Y341270D01*
X778730D01*
Y343598D01*
D02*
G37*
G36*
X1013598Y338730D02*
X1011270D01*
Y336402D01*
X1012158Y336770D01*
X1013230Y337842D01*
X1013598Y338730D01*
D02*
G37*
G36*
X1008730D02*
X1006402D01*
X1006770Y337842D01*
X1007842Y336770D01*
X1008730Y336402D01*
Y338730D01*
D02*
G37*
G36*
X973598D02*
X971270D01*
Y336402D01*
X972158Y336770D01*
X973230Y337842D01*
X973598Y338730D01*
D02*
G37*
G36*
X968730D02*
X966402D01*
X966770Y337842D01*
X967842Y336770D01*
X968730Y336402D01*
Y338730D01*
D02*
G37*
G36*
X933598D02*
X931270D01*
Y336402D01*
X932158Y336770D01*
X933230Y337842D01*
X933598Y338730D01*
D02*
G37*
G36*
X928730D02*
X926402D01*
X926770Y337842D01*
X927842Y336770D01*
X928730Y336402D01*
Y338730D01*
D02*
G37*
G36*
X893598D02*
X891270D01*
Y336402D01*
X892158Y336770D01*
X893230Y337842D01*
X893598Y338730D01*
D02*
G37*
G36*
X888730D02*
X886402D01*
X886770Y337842D01*
X887842Y336770D01*
X888730Y336402D01*
Y338730D01*
D02*
G37*
G36*
X853598D02*
X851270D01*
Y336402D01*
X852158Y336770D01*
X853230Y337842D01*
X853598Y338730D01*
D02*
G37*
G36*
X848730D02*
X846402D01*
X846770Y337842D01*
X847842Y336770D01*
X848730Y336402D01*
Y338730D01*
D02*
G37*
G36*
X783598D02*
X781270D01*
Y336402D01*
X782158Y336770D01*
X783230Y337842D01*
X783598Y338730D01*
D02*
G37*
G36*
X778730D02*
X776402D01*
X776770Y337842D01*
X777842Y336770D01*
X778730Y336402D01*
Y338730D01*
D02*
G37*
G36*
X1054156Y349188D02*
X1052304D01*
X1050517Y348709D01*
X1048913Y347784D01*
X1047605Y346475D01*
X1046679Y344872D01*
X1046200Y343084D01*
Y341233D01*
X1046679Y339445D01*
X1047605Y337842D01*
X1048913Y336533D01*
X1050517Y335607D01*
X1052304Y335128D01*
X1054156D01*
X1055944Y335607D01*
X1057546Y336533D01*
X1058855Y337842D01*
X1059781Y339445D01*
X1060260Y341233D01*
Y343084D01*
X1059781Y344872D01*
X1058855Y346475D01*
X1057546Y347784D01*
X1055944Y348709D01*
X1054156Y349188D01*
D02*
G37*
G36*
X1033770Y331098D02*
Y328770D01*
X1036098D01*
X1035730Y329658D01*
X1034658Y330730D01*
X1033770Y331098D01*
D02*
G37*
G36*
X1031230D02*
X1030342Y330730D01*
X1029270Y329658D01*
X1028902Y328770D01*
X1031230D01*
Y331098D01*
D02*
G37*
G36*
X1036098Y326230D02*
X1033770D01*
Y323902D01*
X1034658Y324270D01*
X1035730Y325342D01*
X1036098Y326230D01*
D02*
G37*
G36*
X1031230D02*
X1028902D01*
X1029270Y325342D01*
X1030342Y324270D01*
X1031230Y323902D01*
Y326230D01*
D02*
G37*
G36*
X1003802Y318780D02*
X1001098D01*
X998486Y318080D01*
X996144Y316728D01*
X994232Y314816D01*
X993146Y312934D01*
X993136Y312931D01*
X991764D01*
X991754Y312934D01*
X990668Y314816D01*
X988756Y316728D01*
X986414Y318080D01*
X983802Y318780D01*
X981098D01*
X978486Y318080D01*
X976144Y316728D01*
X974232Y314816D01*
X973146Y312934D01*
X973136Y312931D01*
X971764D01*
X971754Y312934D01*
X970668Y314816D01*
X968756Y316728D01*
X966414Y318080D01*
X963802Y318780D01*
X961098D01*
X958486Y318080D01*
X956144Y316728D01*
X954232Y314816D01*
X952880Y312474D01*
X952180Y309862D01*
Y307158D01*
X952880Y304546D01*
X954232Y302204D01*
X956144Y300292D01*
X956563Y300050D01*
X956223Y298780D01*
X956098D01*
X953486Y298080D01*
X951144Y296728D01*
X949232Y294816D01*
X947880Y292474D01*
X947180Y289862D01*
Y287158D01*
X947880Y284546D01*
X949232Y282204D01*
X951144Y280292D01*
X953486Y278940D01*
X956098Y278240D01*
X958802D01*
X961414Y278940D01*
X963756Y280292D01*
X965668Y282204D01*
X967020Y284546D01*
X967720Y287158D01*
Y289862D01*
X967020Y292474D01*
X965668Y294816D01*
X963756Y296728D01*
X963337Y296970D01*
X963677Y298240D01*
X963802D01*
X966414Y298940D01*
X968756Y300292D01*
X970668Y302204D01*
X971754Y304086D01*
X971764Y304089D01*
X973136D01*
X973146Y304086D01*
X974232Y302204D01*
X976144Y300292D01*
X978486Y298940D01*
X981098Y298240D01*
X981223D01*
X981563Y296970D01*
X981144Y296728D01*
X979232Y294816D01*
X977880Y292474D01*
X977180Y289862D01*
Y287158D01*
X977880Y284546D01*
X979232Y282204D01*
X981144Y280292D01*
X983486Y278940D01*
X986098Y278240D01*
X986223D01*
X986563Y276970D01*
X986144Y276728D01*
X984232Y274816D01*
X983146Y272934D01*
X983136Y272931D01*
X981764D01*
X981754Y272934D01*
X980668Y274816D01*
X978756Y276728D01*
X976414Y278080D01*
X973802Y278780D01*
X971098D01*
X968486Y278080D01*
X966144Y276728D01*
X964232Y274816D01*
X962880Y272474D01*
X962180Y269862D01*
Y267158D01*
X962880Y264546D01*
X964232Y262204D01*
X966144Y260292D01*
X968486Y258940D01*
X971098Y258240D01*
X973802D01*
X976414Y258940D01*
X978756Y260292D01*
X980668Y262204D01*
X981754Y264086D01*
X981764Y264089D01*
X983136D01*
X983146Y264086D01*
X984232Y262204D01*
X986144Y260292D01*
X988486Y258940D01*
X991098Y258240D01*
X993802D01*
X996414Y258940D01*
X998756Y260292D01*
X1000668Y262204D01*
X1002020Y264546D01*
X1002720Y267158D01*
Y269862D01*
X1002020Y272474D01*
X1000668Y274816D01*
X998756Y276728D01*
X996414Y278080D01*
X993802Y278780D01*
X993677D01*
X993337Y280050D01*
X993756Y280292D01*
X995668Y282204D01*
X996082Y282921D01*
X997352D01*
X998216Y281424D01*
X1000364Y279276D01*
X1002996Y277756D01*
X1004910Y277243D01*
Y288510D01*
X1007450D01*
Y291050D01*
X1018717D01*
X1018204Y292964D01*
X1016684Y295596D01*
X1014536Y297744D01*
X1011904Y299263D01*
X1010027Y299767D01*
X1009647Y301183D01*
X1010668Y302204D01*
X1012020Y304546D01*
X1012720Y307158D01*
Y309862D01*
X1012020Y312474D01*
X1010668Y314816D01*
X1008756Y316728D01*
X1006414Y318080D01*
X1003802Y318780D01*
D02*
G37*
G36*
X1051270Y313598D02*
Y311270D01*
X1053598D01*
X1053230Y312158D01*
X1052158Y313230D01*
X1051270Y313598D01*
D02*
G37*
G36*
X1048730D02*
X1047842Y313230D01*
X1046770Y312158D01*
X1046402Y311270D01*
X1048730D01*
Y313598D01*
D02*
G37*
G36*
X1053598Y308730D02*
X1051270D01*
Y306402D01*
X1052158Y306770D01*
X1053230Y307842D01*
X1053598Y308730D01*
D02*
G37*
G36*
X1048730D02*
X1046402D01*
X1046770Y307842D01*
X1047842Y306770D01*
X1048730Y306402D01*
Y308730D01*
D02*
G37*
G36*
X891270Y303598D02*
Y301270D01*
X893598D01*
X893230Y302158D01*
X892158Y303230D01*
X891270Y303598D01*
D02*
G37*
G36*
X888730D02*
X887842Y303230D01*
X886770Y302158D01*
X886402Y301270D01*
X888730D01*
Y303598D01*
D02*
G37*
G36*
X761270D02*
Y301270D01*
X763598D01*
X763230Y302158D01*
X762158Y303230D01*
X761270Y303598D01*
D02*
G37*
G36*
X758730D02*
X757842Y303230D01*
X756770Y302158D01*
X756402Y301270D01*
X758730D01*
Y303598D01*
D02*
G37*
G36*
X893598Y298730D02*
X891270D01*
Y296402D01*
X892158Y296770D01*
X893230Y297842D01*
X893598Y298730D01*
D02*
G37*
G36*
X888730D02*
X886402D01*
X886770Y297842D01*
X887842Y296770D01*
X888730Y296402D01*
Y298730D01*
D02*
G37*
G36*
X763598D02*
X761270D01*
Y296402D01*
X762158Y296770D01*
X763230Y297842D01*
X763598Y298730D01*
D02*
G37*
G36*
X758730D02*
X756402D01*
X756770Y297842D01*
X757842Y296770D01*
X758730Y296402D01*
Y298730D01*
D02*
G37*
G36*
X761270Y283598D02*
Y281270D01*
X763598D01*
X763230Y282158D01*
X762158Y283230D01*
X761270Y283598D01*
D02*
G37*
G36*
X758730D02*
X757842Y283230D01*
X756770Y282158D01*
X756402Y281270D01*
X758730D01*
Y283598D01*
D02*
G37*
G36*
X843802Y318780D02*
X841098D01*
X838486Y318080D01*
X836144Y316728D01*
X834232Y314816D01*
X832880Y312474D01*
X832180Y309862D01*
Y307158D01*
X832880Y304546D01*
X834232Y302204D01*
X836144Y300292D01*
X838486Y298940D01*
X841098Y298240D01*
X841223D01*
X841563Y296970D01*
X841144Y296728D01*
X839232Y294816D01*
X837880Y292474D01*
X837180Y289862D01*
Y287158D01*
X837880Y284546D01*
X839232Y282204D01*
X841144Y280292D01*
X843486Y278940D01*
X846098Y278240D01*
X848802D01*
X851414Y278940D01*
X853756Y280292D01*
X855668Y282204D01*
X857020Y284546D01*
X857720Y287158D01*
Y289862D01*
X857020Y292474D01*
X855668Y294816D01*
X853756Y296728D01*
X851414Y298080D01*
X848802Y298780D01*
X848677D01*
X848337Y300050D01*
X848756Y300292D01*
X850668Y302204D01*
X852020Y304546D01*
X852720Y307158D01*
Y309862D01*
X852020Y312474D01*
X850668Y314816D01*
X848756Y316728D01*
X846414Y318080D01*
X843802Y318780D01*
D02*
G37*
G36*
X803802D02*
X801098D01*
X798486Y318080D01*
X796144Y316728D01*
X794232Y314816D01*
X792880Y312474D01*
X792180Y309862D01*
Y307158D01*
X792880Y304546D01*
X794232Y302204D01*
X796144Y300292D01*
X796563Y300050D01*
X796223Y298780D01*
X796098D01*
X793486Y298080D01*
X791144Y296728D01*
X789232Y294816D01*
X787880Y292474D01*
X787180Y289862D01*
Y287158D01*
X787880Y284546D01*
X789232Y282204D01*
X791144Y280292D01*
X793486Y278940D01*
X796098Y278240D01*
X798802D01*
X801414Y278940D01*
X803756Y280292D01*
X805668Y282204D01*
X807020Y284546D01*
X807720Y287158D01*
Y289862D01*
X807020Y292474D01*
X805668Y294816D01*
X803756Y296728D01*
X803337Y296970D01*
X803677Y298240D01*
X803802D01*
X806414Y298940D01*
X808756Y300292D01*
X810668Y302204D01*
X812020Y304546D01*
X812720Y307158D01*
Y309862D01*
X812020Y312474D01*
X810668Y314816D01*
X808756Y316728D01*
X806414Y318080D01*
X803802Y318780D01*
D02*
G37*
G36*
X1018717Y285970D02*
X1009990D01*
Y277243D01*
X1011904Y277756D01*
X1014536Y279276D01*
X1016684Y281424D01*
X1018204Y284056D01*
X1018717Y285970D01*
D02*
G37*
G36*
X763598Y278730D02*
X761270D01*
Y276402D01*
X762158Y276770D01*
X763230Y277842D01*
X763598Y278730D01*
D02*
G37*
G36*
X758730D02*
X756402D01*
X756770Y277842D01*
X757842Y276770D01*
X758730Y276402D01*
Y278730D01*
D02*
G37*
G36*
X1051270Y273598D02*
Y271270D01*
X1053598D01*
X1053230Y272158D01*
X1052158Y273230D01*
X1051270Y273598D01*
D02*
G37*
G36*
X1048730D02*
X1047842Y273230D01*
X1046770Y272158D01*
X1046402Y271270D01*
X1048730D01*
Y273598D01*
D02*
G37*
G36*
X811180Y280050D02*
X810931D01*
X807996Y279263D01*
X805364Y277744D01*
X803216Y275596D01*
X801696Y272964D01*
X800910Y270029D01*
Y269780D01*
X811180D01*
Y280050D01*
D02*
G37*
G36*
X1053598Y268730D02*
X1051270D01*
Y266402D01*
X1052158Y266770D01*
X1053230Y267842D01*
X1053598Y268730D01*
D02*
G37*
G36*
X1048730D02*
X1046402D01*
X1046770Y267842D01*
X1047842Y266770D01*
X1048730Y266402D01*
Y268730D01*
D02*
G37*
G36*
X891270Y263598D02*
Y261270D01*
X893598D01*
X893230Y262158D01*
X892158Y263230D01*
X891270Y263598D01*
D02*
G37*
G36*
X888730D02*
X887842Y263230D01*
X886770Y262158D01*
X886402Y261270D01*
X888730D01*
Y263598D01*
D02*
G37*
G36*
X813969Y280050D02*
X813720D01*
Y268510D01*
Y256970D01*
X813969D01*
X816904Y257756D01*
X819536Y259276D01*
X821684Y261424D01*
X822548Y262921D01*
X823818D01*
X824232Y262204D01*
X826144Y260292D01*
X828486Y258940D01*
X831098Y258240D01*
X833802D01*
X836414Y258940D01*
X838756Y260292D01*
X840668Y262204D01*
X842020Y264546D01*
X842720Y267158D01*
Y269862D01*
X842020Y272474D01*
X840668Y274816D01*
X838756Y276728D01*
X836414Y278080D01*
X833802Y278780D01*
X831098D01*
X828486Y278080D01*
X826144Y276728D01*
X824232Y274816D01*
X823818Y274099D01*
X822548D01*
X821684Y275596D01*
X819536Y277744D01*
X816904Y279263D01*
X813969Y280050D01*
D02*
G37*
G36*
X811180Y267240D02*
X800910D01*
Y266991D01*
X801696Y264056D01*
X803216Y261424D01*
X805364Y259276D01*
X807996Y257756D01*
X810931Y256970D01*
X811180D01*
Y267240D01*
D02*
G37*
G36*
X893598Y258730D02*
X891270D01*
Y256402D01*
X892158Y256770D01*
X893230Y257842D01*
X893598Y258730D01*
D02*
G37*
G36*
X888730D02*
X886402D01*
X886770Y257842D01*
X887842Y256770D01*
X888730Y256402D01*
Y258730D01*
D02*
G37*
G36*
X1031270Y243598D02*
Y241270D01*
X1033598D01*
X1033230Y242158D01*
X1032158Y243230D01*
X1031270Y243598D01*
D02*
G37*
G36*
X1028730D02*
X1027842Y243230D01*
X1026770Y242158D01*
X1026402Y241270D01*
X1028730D01*
Y243598D01*
D02*
G37*
G36*
X1033598Y238730D02*
X1031270D01*
Y236402D01*
X1032158Y236770D01*
X1033230Y237842D01*
X1033598Y238730D01*
D02*
G37*
G36*
X1028730D02*
X1026402D01*
X1026770Y237842D01*
X1027842Y236770D01*
X1028730Y236402D01*
Y238730D01*
D02*
G37*
G36*
X1001270Y233598D02*
Y231270D01*
X1003598D01*
X1003230Y232158D01*
X1002158Y233230D01*
X1001270Y233598D01*
D02*
G37*
G36*
X998730D02*
X997842Y233230D01*
X996770Y232158D01*
X996402Y231270D01*
X998730D01*
Y233598D01*
D02*
G37*
G36*
X1003598Y228730D02*
X1001270D01*
Y226402D01*
X1002158Y226770D01*
X1003230Y227842D01*
X1003598Y228730D01*
D02*
G37*
G36*
X998730D02*
X996402D01*
X996770Y227842D01*
X997842Y226770D01*
X998730Y226402D01*
Y228730D01*
D02*
G37*
G36*
X871270Y213598D02*
Y211270D01*
X873598D01*
X873230Y212158D01*
X872158Y213230D01*
X871270Y213598D01*
D02*
G37*
G36*
X868730D02*
X867842Y213230D01*
X866770Y212158D01*
X866402Y211270D01*
X868730D01*
Y213598D01*
D02*
G37*
G36*
X841270D02*
Y211270D01*
X843598D01*
X843230Y212158D01*
X842158Y213230D01*
X841270Y213598D01*
D02*
G37*
G36*
X838730D02*
X837842Y213230D01*
X836770Y212158D01*
X836402Y211270D01*
X838730D01*
Y213598D01*
D02*
G37*
G36*
X761270D02*
Y211270D01*
X763598D01*
X763230Y212158D01*
X762158Y213230D01*
X761270Y213598D01*
D02*
G37*
G36*
X758730D02*
X757842Y213230D01*
X756770Y212158D01*
X756402Y211270D01*
X758730D01*
Y213598D01*
D02*
G37*
G36*
X873598Y208730D02*
X871270D01*
Y206402D01*
X872158Y206770D01*
X873230Y207842D01*
X873598Y208730D01*
D02*
G37*
G36*
X868730D02*
X866402D01*
X866770Y207842D01*
X867842Y206770D01*
X868730Y206402D01*
Y208730D01*
D02*
G37*
G36*
X843598D02*
X841270D01*
Y206402D01*
X842158Y206770D01*
X843230Y207842D01*
X843598Y208730D01*
D02*
G37*
G36*
X838730D02*
X836402D01*
X836770Y207842D01*
X837842Y206770D01*
X838730Y206402D01*
Y208730D01*
D02*
G37*
G36*
X763598D02*
X761270D01*
Y206402D01*
X762158Y206770D01*
X763230Y207842D01*
X763598Y208730D01*
D02*
G37*
G36*
X758730D02*
X756402D01*
X756770Y207842D01*
X757842Y206770D01*
X758730Y206402D01*
Y208730D01*
D02*
G37*
G36*
X971270Y203598D02*
Y201270D01*
X973598D01*
X973230Y202158D01*
X972158Y203230D01*
X971270Y203598D01*
D02*
G37*
G36*
X968730D02*
X967842Y203230D01*
X966770Y202158D01*
X966402Y201270D01*
X968730D01*
Y203598D01*
D02*
G37*
G36*
X973598Y198730D02*
X971270D01*
Y196402D01*
X972158Y196770D01*
X973230Y197842D01*
X973598Y198730D01*
D02*
G37*
G36*
X968730D02*
X966402D01*
X966770Y197842D01*
X967842Y196770D01*
X968730Y196402D01*
Y198730D01*
D02*
G37*
G36*
X761270Y193598D02*
Y191270D01*
X763598D01*
X763230Y192158D01*
X762158Y193230D01*
X761270Y193598D01*
D02*
G37*
G36*
X758730D02*
X757842Y193230D01*
X756770Y192158D01*
X756402Y191270D01*
X758730D01*
Y193598D01*
D02*
G37*
G36*
X763598Y188730D02*
X761270D01*
Y186402D01*
X762158Y186770D01*
X763230Y187842D01*
X763598Y188730D01*
D02*
G37*
G36*
X758730D02*
X756402D01*
X756770Y187842D01*
X757842Y186770D01*
X758730Y186402D01*
Y188730D01*
D02*
G37*
G36*
X871270Y183598D02*
Y181270D01*
X873598D01*
X873230Y182158D01*
X872158Y183230D01*
X871270Y183598D01*
D02*
G37*
G36*
X868730D02*
X867842Y183230D01*
X866770Y182158D01*
X866402Y181270D01*
X868730D01*
Y183598D01*
D02*
G37*
G36*
X841270D02*
Y181270D01*
X843598D01*
X843230Y182158D01*
X842158Y183230D01*
X841270Y183598D01*
D02*
G37*
G36*
X838730D02*
X837842Y183230D01*
X836770Y182158D01*
X836402Y181270D01*
X838730D01*
Y183598D01*
D02*
G37*
G36*
X873598Y178730D02*
X871270D01*
Y176402D01*
X872158Y176770D01*
X873230Y177842D01*
X873598Y178730D01*
D02*
G37*
G36*
X868730D02*
X866402D01*
X866770Y177842D01*
X867842Y176770D01*
X868730Y176402D01*
Y178730D01*
D02*
G37*
G36*
X843598D02*
X841270D01*
Y176402D01*
X842158Y176770D01*
X843230Y177842D01*
X843598Y178730D01*
D02*
G37*
G36*
X838730D02*
X836402D01*
X836770Y177842D01*
X837842Y176770D01*
X838730Y176402D01*
Y178730D01*
D02*
G37*
G36*
X951270Y163598D02*
Y161270D01*
X953598D01*
X953230Y162158D01*
X952158Y163230D01*
X951270Y163598D01*
D02*
G37*
G36*
X948730D02*
X947842Y163230D01*
X946770Y162158D01*
X946402Y161270D01*
X948730D01*
Y163598D01*
D02*
G37*
G36*
X801270D02*
Y161270D01*
X803598D01*
X803230Y162158D01*
X802158Y163230D01*
X801270Y163598D01*
D02*
G37*
G36*
X798730D02*
X797842Y163230D01*
X796770Y162158D01*
X796402Y161270D01*
X798730D01*
Y163598D01*
D02*
G37*
G36*
X953598Y158730D02*
X951270D01*
Y156402D01*
X952158Y156770D01*
X953230Y157842D01*
X953598Y158730D01*
D02*
G37*
G36*
X948730D02*
X946402D01*
X946770Y157842D01*
X947842Y156770D01*
X948730Y156402D01*
Y158730D01*
D02*
G37*
G36*
X803598D02*
X801270D01*
Y156402D01*
X802158Y156770D01*
X803230Y157842D01*
X803598Y158730D01*
D02*
G37*
G36*
X798730D02*
X796402D01*
X796770Y157842D01*
X797842Y156770D01*
X798730Y156402D01*
Y158730D01*
D02*
G37*
G36*
X721270Y143598D02*
Y141270D01*
X723598D01*
X723230Y142158D01*
X722158Y143230D01*
X721270Y143598D01*
D02*
G37*
G36*
X718730D02*
X717842Y143230D01*
X716770Y142158D01*
X716402Y141270D01*
X718730D01*
Y143598D01*
D02*
G37*
G36*
X723598Y138730D02*
X721270D01*
Y136402D01*
X722158Y136770D01*
X723230Y137842D01*
X723598Y138730D01*
D02*
G37*
G36*
X718730D02*
X716402D01*
X716770Y137842D01*
X717842Y136770D01*
X718730Y136402D01*
Y138730D01*
D02*
G37*
G36*
X931270Y123598D02*
Y121270D01*
X933598D01*
X933230Y122158D01*
X932158Y123230D01*
X931270Y123598D01*
D02*
G37*
G36*
X928730D02*
X927842Y123230D01*
X926770Y122158D01*
X926402Y121270D01*
X928730D01*
Y123598D01*
D02*
G37*
G36*
X811270D02*
Y121270D01*
X813598D01*
X813230Y122158D01*
X812158Y123230D01*
X811270Y123598D01*
D02*
G37*
G36*
X808730D02*
X807842Y123230D01*
X806770Y122158D01*
X806402Y121270D01*
X808730D01*
Y123598D01*
D02*
G37*
G36*
X933598Y118730D02*
X931270D01*
Y116402D01*
X932158Y116770D01*
X933230Y117842D01*
X933598Y118730D01*
D02*
G37*
G36*
X928730D02*
X926402D01*
X926770Y117842D01*
X927842Y116770D01*
X928730Y116402D01*
Y118730D01*
D02*
G37*
G36*
X813598D02*
X811270D01*
Y116402D01*
X812158Y116770D01*
X813230Y117842D01*
X813598Y118730D01*
D02*
G37*
G36*
X808730D02*
X806402D01*
X806770Y117842D01*
X807842Y116770D01*
X808730Y116402D01*
Y118730D01*
D02*
G37*
G36*
X811270Y103598D02*
Y101270D01*
X813598D01*
X813230Y102158D01*
X812158Y103230D01*
X811270Y103598D01*
D02*
G37*
G36*
X808730D02*
X807842Y103230D01*
X806770Y102158D01*
X806402Y101270D01*
X808730D01*
Y103598D01*
D02*
G37*
G36*
X813598Y98730D02*
X811270D01*
Y96402D01*
X812158Y96770D01*
X813230Y97842D01*
X813598Y98730D01*
D02*
G37*
G36*
X808730D02*
X806402D01*
X806770Y97842D01*
X807842Y96770D01*
X808730Y96402D01*
Y98730D01*
D02*
G37*
G36*
X911270Y83598D02*
Y81270D01*
X913598D01*
X913230Y82158D01*
X912158Y83230D01*
X911270Y83598D01*
D02*
G37*
G36*
X908730D02*
X907842Y83230D01*
X906770Y82158D01*
X906402Y81270D01*
X908730D01*
Y83598D01*
D02*
G37*
G36*
X913598Y78730D02*
X911270D01*
Y76402D01*
X912158Y76770D01*
X913230Y77842D01*
X913598Y78730D01*
D02*
G37*
G36*
X908730D02*
X906402D01*
X906770Y77842D01*
X907842Y76770D01*
X908730Y76402D01*
Y78730D01*
D02*
G37*
G36*
X891270Y43598D02*
Y41270D01*
X893598D01*
X893230Y42158D01*
X892158Y43230D01*
X891270Y43598D01*
D02*
G37*
G36*
X888730D02*
X887842Y43230D01*
X886770Y42158D01*
X886402Y41270D01*
X888730D01*
Y43598D01*
D02*
G37*
G36*
X893598Y38730D02*
X891270D01*
Y36402D01*
X892158Y36770D01*
X893230Y37842D01*
X893598Y38730D01*
D02*
G37*
G36*
X888730D02*
X886402D01*
X886770Y37842D01*
X887842Y36770D01*
X888730Y36402D01*
Y38730D01*
D02*
G37*
G36*
X735150Y57600D02*
X709750D01*
X706103Y57120D01*
X702705Y55713D01*
X699787Y53474D01*
X697547Y50555D01*
X696140Y47157D01*
X695659Y43510D01*
X696140Y39863D01*
X697547Y36465D01*
X699787Y33547D01*
X702705Y31307D01*
X706103Y29900D01*
X709750Y29419D01*
X735150D01*
X738797Y29900D01*
X742195Y31307D01*
X745114Y33547D01*
X747353Y36465D01*
X748760Y39863D01*
X749240Y43510D01*
X748760Y47157D01*
X747353Y50555D01*
X745114Y53474D01*
X742195Y55713D01*
X738797Y57120D01*
X735150Y57600D01*
D02*
G37*
G36*
X861270Y23598D02*
Y21270D01*
X863598D01*
X863230Y22158D01*
X862158Y23230D01*
X861270Y23598D01*
D02*
G37*
G36*
X858730D02*
X857842Y23230D01*
X856770Y22158D01*
X856402Y21270D01*
X858730D01*
Y23598D01*
D02*
G37*
G36*
X821270D02*
Y21270D01*
X823598D01*
X823230Y22158D01*
X822158Y23230D01*
X821270Y23598D01*
D02*
G37*
G36*
X818730D02*
X817842Y23230D01*
X816770Y22158D01*
X816402Y21270D01*
X818730D01*
Y23598D01*
D02*
G37*
G36*
X781270D02*
Y21270D01*
X783598D01*
X783230Y22158D01*
X782158Y23230D01*
X781270Y23598D01*
D02*
G37*
G36*
X778730D02*
X777842Y23230D01*
X776770Y22158D01*
X776402Y21270D01*
X778730D01*
Y23598D01*
D02*
G37*
G36*
X671270D02*
Y21270D01*
X673598D01*
X673230Y22158D01*
X672158Y23230D01*
X671270Y23598D01*
D02*
G37*
G36*
X668730D02*
X667842Y23230D01*
X666770Y22158D01*
X666402Y21270D01*
X668730D01*
Y23598D01*
D02*
G37*
G36*
X863598Y18730D02*
X861270D01*
Y16402D01*
X862158Y16770D01*
X863230Y17842D01*
X863598Y18730D01*
D02*
G37*
G36*
X858730D02*
X856402D01*
X856770Y17842D01*
X857842Y16770D01*
X858730Y16402D01*
Y18730D01*
D02*
G37*
G36*
X823598D02*
X821270D01*
Y16402D01*
X822158Y16770D01*
X823230Y17842D01*
X823598Y18730D01*
D02*
G37*
G36*
X818730D02*
X816402D01*
X816770Y17842D01*
X817842Y16770D01*
X818730Y16402D01*
Y18730D01*
D02*
G37*
G36*
X783598D02*
X781270D01*
Y16402D01*
X782158Y16770D01*
X783230Y17842D01*
X783598Y18730D01*
D02*
G37*
G36*
X778730D02*
X776402D01*
X776770Y17842D01*
X777842Y16770D01*
X778730Y16402D01*
Y18730D01*
D02*
G37*
G36*
X673598D02*
X671270D01*
Y16402D01*
X672158Y16770D01*
X673230Y17842D01*
X673598Y18730D01*
D02*
G37*
G36*
X668730D02*
X666402D01*
X666770Y17842D01*
X667842Y16770D01*
X668730Y16402D01*
Y18730D01*
D02*
G37*
%LPD*%
D15*
X292500Y222653D02*
X293738Y223891D01*
X293673Y223827D02*
X302244Y215256D01*
X292500Y225000D02*
X293673Y223827D01*
X348651Y137968D02*
Y143880D01*
X302340Y190191D02*
Y209551D01*
X302244Y209647D02*
X302340Y209551D01*
Y190191D02*
X348651Y143880D01*
X302244Y209647D02*
Y215256D01*
X295351Y239649D02*
Y240892D01*
X306150Y191769D02*
Y228850D01*
X295351Y239649D02*
X306150Y228850D01*
X356922Y101210D02*
Y140997D01*
X306150Y191769D02*
X356922Y140997D01*
X347500Y91788D02*
X356922Y101210D01*
X357500Y96400D02*
X360732Y99632D01*
Y142575D01*
X347500Y77500D02*
Y91788D01*
X357500Y82712D02*
Y96400D01*
X312500Y190807D02*
X360732Y142575D01*
X293738Y223891D02*
X294433D01*
X348396Y107500D02*
Y138302D01*
X312500Y190807D02*
Y210000D01*
X367444Y47980D02*
X367828D01*
X357020D02*
X367444D01*
X332500Y72500D02*
X357020Y47980D01*
X367828D02*
X367850Y47959D01*
X307500Y43276D02*
Y107500D01*
X302949Y38726D02*
X307500Y43276D01*
X302949Y37602D02*
Y38726D01*
D85*
X595103Y88172D02*
Y88668D01*
X590000Y65000D02*
Y83069D01*
X595103Y88172D01*
X562894Y34867D02*
X572450Y44424D01*
Y62475D01*
X583069Y73094D01*
Y105657D01*
X570729Y109271D02*
X579455D01*
X583069Y105657D01*
X570000Y110000D02*
X570729Y109271D01*
X405000Y56760D02*
X406039Y55721D01*
X405000Y56760D02*
Y104593D01*
X406039Y55721D02*
X406087D01*
X320740Y188853D02*
Y220000D01*
Y188853D02*
X405000Y104593D01*
X320956Y220215D02*
X321542D01*
X320740Y220000D02*
X320956Y220215D01*
X320740Y221017D02*
X321542Y220215D01*
X320740Y221017D02*
Y221760D01*
D86*
X574501Y203710D02*
X575894Y202318D01*
X529787Y265213D02*
X530900D01*
X575894Y202318D02*
X576045D01*
X530000Y265000D02*
X574501Y220499D01*
Y203710D02*
Y220499D01*
X516623Y278377D02*
X529787Y265213D01*
X516623Y278377D02*
Y300712D01*
X480000Y337335D02*
X516623Y300712D01*
X480000Y337335D02*
Y350000D01*
D91*
X1053230Y342158D02*
D03*
X124922Y24378D02*
D03*
D93*
X972450Y268510D02*
D03*
X992450D02*
D03*
X1007450Y288510D02*
D03*
X987450D02*
D03*
X957450D02*
D03*
X1002450Y308510D02*
D03*
X962450D02*
D03*
X982450D02*
D03*
X802450D02*
D03*
X842450D02*
D03*
X797450Y288510D02*
D03*
X847450D02*
D03*
X832450Y268510D02*
D03*
X812450D02*
D03*
D95*
X170450Y87510D02*
D03*
D96*
X542450Y323510D02*
D03*
X722450Y43510D02*
D03*
D97*
X348396Y107500D02*
D03*
X125000Y352500D02*
D03*
X1050000Y270000D02*
D03*
X110000Y85000D02*
D03*
X112500Y95000D02*
D03*
Y105000D02*
D03*
X105000Y110000D02*
D03*
X95000D02*
D03*
X85000D02*
D03*
X75000D02*
D03*
X67500Y105000D02*
D03*
Y95000D02*
D03*
X70000Y85000D02*
D03*
X90000D02*
D03*
X100000D02*
D03*
X80000D02*
D03*
X100000Y180000D02*
D03*
X80000D02*
D03*
X90000D02*
D03*
X110000D02*
D03*
X112500Y170000D02*
D03*
Y160000D02*
D03*
X105000Y155000D02*
D03*
X95000D02*
D03*
X85000D02*
D03*
X75000D02*
D03*
X67500Y160000D02*
D03*
Y170000D02*
D03*
X70000Y180000D02*
D03*
X420000Y17500D02*
D03*
Y27500D02*
D03*
Y37500D02*
D03*
X427500Y65000D02*
D03*
X440000Y82500D02*
D03*
X240000Y72500D02*
D03*
X287500Y265000D02*
D03*
X322500Y300000D02*
D03*
X380000Y350000D02*
D03*
X430000D02*
D03*
X500000D02*
D03*
X525000D02*
D03*
X552500D02*
D03*
X312500Y245000D02*
D03*
X160000Y300000D02*
D03*
X147500D02*
D03*
X135000D02*
D03*
X125000Y312500D02*
D03*
Y322500D02*
D03*
Y332500D02*
D03*
Y342500D02*
D03*
X195000Y142500D02*
D03*
Y152500D02*
D03*
Y162500D02*
D03*
Y172500D02*
D03*
Y182500D02*
D03*
Y192500D02*
D03*
X217500Y155000D02*
D03*
X250000D02*
D03*
X217500Y182500D02*
D03*
Y195000D02*
D03*
X250000Y217500D02*
D03*
X240000Y257500D02*
D03*
Y270000D02*
D03*
X227500Y257500D02*
D03*
X260000Y350000D02*
D03*
X530000Y265000D02*
D03*
X542500Y155000D02*
D03*
X502500Y170000D02*
D03*
X587500Y202500D02*
D03*
X542500Y177500D02*
D03*
X415000Y137500D02*
D03*
X460000Y147500D02*
D03*
X536263Y133874D02*
D03*
X267500Y65000D02*
D03*
X527500Y237500D02*
D03*
X600000Y70000D02*
D03*
X382500Y145000D02*
D03*
X480000Y350000D02*
D03*
X227500Y270000D02*
D03*
X295000Y240000D02*
D03*
X320740Y221760D02*
D03*
X367444Y47980D02*
D03*
X328739Y129342D02*
D03*
X562500Y77500D02*
D03*
X337500Y200000D02*
D03*
X377500Y185000D02*
D03*
Y222500D02*
D03*
X422500Y247500D02*
D03*
X500000Y250000D02*
D03*
X552500Y287500D02*
D03*
X537500D02*
D03*
X462500Y325000D02*
D03*
X437500D02*
D03*
X612500Y350000D02*
D03*
Y262500D02*
D03*
X625000Y25000D02*
D03*
X612500Y12500D02*
D03*
X587500D02*
D03*
X562500D02*
D03*
X537500D02*
D03*
X512500D02*
D03*
X487500D02*
D03*
X300000D02*
D03*
X275000D02*
D03*
X225000D02*
D03*
X200000D02*
D03*
X175000D02*
D03*
X150000D02*
D03*
X112500Y37500D02*
D03*
X347500Y77500D02*
D03*
X292500Y225000D02*
D03*
X405000Y55000D02*
D03*
X385000Y60000D02*
D03*
X357500Y82500D02*
D03*
X312500Y210000D02*
D03*
X575000Y202500D02*
D03*
X590000Y65000D02*
D03*
X562500Y35000D02*
D03*
X240000Y217500D02*
D03*
X332500Y100000D02*
D03*
Y87500D02*
D03*
X460000Y190000D02*
D03*
X480000Y230000D02*
D03*
X292500Y345000D02*
D03*
X372500Y60000D02*
D03*
X332500Y72500D02*
D03*
X212500Y27500D02*
D03*
X211098Y43730D02*
D03*
X277500Y65000D02*
D03*
X275000Y100000D02*
D03*
X302500Y37500D02*
D03*
X307500Y107500D02*
D03*
X292500Y315000D02*
D03*
Y325000D02*
D03*
Y335000D02*
D03*
X595168Y89268D02*
D03*
X530000Y47500D02*
D03*
X515000Y60000D02*
D03*
X570000Y110000D02*
D03*
X580000Y350000D02*
D03*
X590000Y160000D02*
D03*
X620000Y170000D02*
D03*
Y150000D02*
D03*
Y130000D02*
D03*
Y110000D02*
D03*
X420000Y170000D02*
D03*
X531109Y106425D02*
D03*
X480000Y210000D02*
D03*
Y190000D02*
D03*
X440000D02*
D03*
X460000Y210000D02*
D03*
X440000D02*
D03*
X460000Y230000D02*
D03*
X440000D02*
D03*
X670000Y20000D02*
D03*
X870000Y210000D02*
D03*
X840000D02*
D03*
X890000Y260000D02*
D03*
Y300000D02*
D03*
X870000Y180000D02*
D03*
X840000D02*
D03*
X810000Y120000D02*
D03*
Y100000D02*
D03*
X800000Y160000D02*
D03*
X760000Y300000D02*
D03*
Y280000D02*
D03*
X780000Y340000D02*
D03*
X760000Y210000D02*
D03*
Y190000D02*
D03*
X890000Y340000D02*
D03*
X930000D02*
D03*
X970000D02*
D03*
X1010000D02*
D03*
X1032500Y327500D02*
D03*
X1050000Y310000D02*
D03*
X1030000Y240000D02*
D03*
X1000000Y230000D02*
D03*
X720000Y140000D02*
D03*
X780000Y20000D02*
D03*
X820000D02*
D03*
X860000D02*
D03*
X970000Y200000D02*
D03*
X950000Y160000D02*
D03*
X890000Y40000D02*
D03*
X910000Y80000D02*
D03*
X930000Y120000D02*
D03*
X850000Y340000D02*
D03*
M02*
